<svg xmlns="http://www.w3.org/2000/svg" width="364.003" height="297.362" viewBox="0 0 364.003 297.362">
  <g id="Group_74" data-name="Group 74" transform="translate(-0.001 -0.022)">
    <path id="Path_181" data-name="Path 181" d="M463.7,220.9v.674q-.059,5.844-.693,11.658a.417.417,0,0,1,0,.07c-.033.322-.07.641-.107.963-.063.544-.13,1.085-.2,1.629a117.2,117.2,0,0,1-4.27,19.55h0a105.428,105.428,0,0,1-11.147,24.546q-2.192,3.518-4.67,6.811h0c-.881,1.163-1.781,2.3-2.711,3.418q-.978,1.174-1.992,2.311l-.422.467A109.87,109.87,0,0,1,426,303.907,180.174,180.174,0,0,1,404.869,318.7c-.415.256-.833.507-1.252.741a.61.61,0,0,1-.093.056,222.886,222.886,0,0,1-30.775,15.728,139.586,139.586,0,0,1-35.841,9.718c-17.117,2.1-34.441.393-51.455-2.548a334.389,334.389,0,0,1-41.848-10l-2.259-.707q-1.755-.559-3.507-1.141-10.581-3.5-20.924-7.777a275.043,275.043,0,0,1-49.377-26.512q-2.963-1.992-5.84-4.074-4.022-2.9-7.947-5.962l-1.615-1.252a166.006,166.006,0,0,1-19.191-17.624c-7.97-8.673-14.78-18.458-19.258-29.627q-1.059-2.633-1.941-5.366l-.056-.181c-.3-.926-.57-1.852-.822-2.815q-.555-2.067-.974-4.185c-.059-.27-.111-.541-.159-.815a70.071,70.071,0,0,1-1.167-14.417,66.661,66.661,0,0,1,1.481-12.591h0a56.8,56.8,0,0,1,4.2-12.432h0a44.811,44.811,0,0,1,6.418-9.9h0a37.86,37.86,0,0,1,6.048-5.651,49.4,49.4,0,0,1,13.091-6.725h0c2.17-.778,4.37-1.459,6.581-2.092,1.567-.452,3.14-.881,4.707-1.3l4.622-1.248c2.963-.807,5.925-1.637,8.844-2.533a99.614,99.614,0,0,0,22.961-9.755c1.141-.693,2.3-1.452,3.466-2.266q2.222-1.544,4.385-3.355h0c1.459-1.222,2.889-2.529,4.251-3.914.211-.215.418-.43.626-.648,1.111-1.17,2.189-2.4,3.189-3.67.489-.622.963-1.255,1.415-1.9.626-.893,1.218-1.8,1.767-2.733h0a27.979,27.979,0,0,0,4.244-15.239,23.447,23.447,0,0,0-.241-2.67c-.481-3.27-.944-6.462-1.285-9.584-1.43-12.914-.826-24.624,8.866-35.626,12.051-13.677,30.964-16.465,48.181-15.373,49.777,3.148,95.092,31.568,134.914,65.4q5.166,4.385,10.207,8.888,1.27,1.133,2.544,2.281c6.3,5.67,12.5,11.551,18.269,17.85.467.511.933,1.022,1.392,1.537.281.318.567.633.844.955q2.7,3.055,5.24,6.259a118.566,118.566,0,0,1,11.969,18.147,103.019,103.019,0,0,1,10.51,32.1h0a114.375,114.375,0,0,1,1.27,12.284c.063,1.211.1,2.426.126,3.637v1.163C463.7,219.789,463.7,220.337,463.7,220.9Z" transform="translate(-108.55 -48.49)" fill="#9591e2" opacity="0.1"/>
    <path id="Path_182" data-name="Path 182" d="M383.905,446.221,377.98,551.69l5.925.078L388.72,444.74Z" transform="translate(-237.999 -280.022)" fill="#3f3d56"/>
    <rect id="Rectangle_64" data-name="Rectangle 64" width="73.327" height="15.925" transform="translate(50.73 219.635)" fill="#9591e2"/>
    <path id="Path_183" data-name="Path 183" d="M314.233,679.51v10H238.487q-4.022-2.9-7.947-5.962V679.51Z" transform="translate(-185.362 -445.806)" fill="#3f3d56"/>
    <path id="Path_184" data-name="Path 184" d="M294.021,545.405c-.207.959-.478,1.907-.763,2.852a37.173,37.173,0,0,0-2.048,8.258c-.263,3.748.741,8.107-1.852,10.829-.667.7-1.537,1.23-2.133,1.981a3.459,3.459,0,0,0-.252.37,5.739,5.739,0,0,0-.6,2.963,51.85,51.85,0,0,0,.418,6.425c.878,7.333,2.611,14.68.333,21.6a33.29,33.29,0,0,1-1.441,3.522,27.529,27.529,0,0,0-2.685,7.5,47.26,47.26,0,0,0-.2,5.981q-1.755-.559-3.507-1.141-10.581-3.5-20.924-7.777c.019-.1.037-.2.052-.3.53-3.3-.2-6.666-1.078-9.881-1.852-6.811-4.474-13.554-6.025-20.413a51.657,51.657,0,0,1-1.226-8.147c-.044-.615-.07-1.233-.074-1.852-.019-.807,0-1.615.033-2.429.078-1.626.148-3.555-1.152-4.544a9.962,9.962,0,0,0-2.492-.955c-1.607-.626-2.707-2.078-3.981-3.24a5.218,5.218,0,0,0-4.663-1.37c-8.325,1.907-14.443,8.97-22.191,12.54-.3.141-.6.274-.9.4a13.164,13.164,0,0,0-2.84,1.452,3.236,3.236,0,0,0-1.274,1.8,6.72,6.72,0,0,0,.07,2.415,12.328,12.328,0,0,1-.167,3.937,12.015,12.015,0,0,1-.4,1.481c-.3.878-.693,1.737-1.07,2.592q-2.963-1.992-5.84-4.074-4.022-2.9-7.947-5.962l-1.589-1.278a166.01,166.01,0,0,1-19.191-17.624,67.1,67.1,0,0,0,2.478-6.566c.311-1.307.426-2.666.855-3.937a14.155,14.155,0,0,1,2.044-3.666,49.627,49.627,0,0,1,11.384-11.392c4.588-3.289,9.888-5.925,14.017-9.658a22.119,22.119,0,0,0,4.285-5.077,3.181,3.181,0,0,0,.2-.37,7.686,7.686,0,0,0,.663-2.118c.3-1.659.252-3.481.4-5.074a54.119,54.119,0,0,0,15.232.459c5.907-.663,11.684-2.3,17.591-2.94.444-.052.893-.093,1.341-.13,1.892-.152,3.789-.185,5.688-.163,1.589,0,3.178.07,4.766.122l17.491.593a17.172,17.172,0,0,1,5.718.848A12.5,12.5,0,0,1,283.8,508.6c.174.237.348.474.511.718a22.59,22.59,0,0,1,2.7,5.329c.07.193.137.37.2.581.167.515.311,1.033.441,1.559.1.411.189.822.27,1.237a53.117,53.117,0,0,0,1.292,6.129c.044.144.093.289.144.43.774,2.17,2.059,4.114,3.029,6.2a23.022,23.022,0,0,1,1.592,4.714A23.3,23.3,0,0,1,294.021,545.405Z" transform="translate(-150.025 -334.458)" fill="#35323e"/>
    <path id="Path_185" data-name="Path 185" d="M272.84,259.15c-1.563-1.244-3.829-.333-5.659.47a36.325,36.325,0,0,1-4.725,1.707,2,2,0,0,1-1.037.107c-.741-.178-1.052-1.055-1.6-1.589-.959-.922-2.529-.7-3.766-.2s-2.459,1.222-3.785,1.111c-1.415-.111-2.644-1.155-4.074-1.189-2.518-.059-4.633,3.044-7.014,2.222-1.452-.5-2.592-2.389-4.022-1.852-1.111.422-1.211,1.959-1.881,2.963-.789,1.17-2.326,1.5-3.64,2.018a10.458,10.458,0,0,0-6.348,10.677c.3,2.44,1.481,4.677,2.263,7.007,2.318,6.773,1.522,14.414,4.444,20.946.37-.348.578-.478.937-.822a8.569,8.569,0,0,0-.5,6.148c.307,1.026.807,1.981,1.185,2.985a26.754,26.754,0,0,1,.948,3.444l3.222,14.214c1.259,5.555,2.522,11.11,2.74,16.8a49.026,49.026,0,0,1-.844,11.036c5.837-.967,11.177-3.555,17.091-3.522a47.651,47.651,0,0,1,6.474.667,133.262,133.262,0,0,0,18.935,1.285,7.519,7.519,0,0,0,2.9-.407,21.783,21.783,0,0,0,2.252-1.415,9.96,9.96,0,0,1,5.07-1.111c7.921-.144,15.554,2.755,23.424,3.777a28.2,28.2,0,0,0,.907-21.154,31.584,31.584,0,0,1-1.941-6.129,31,31,0,0,1-.089-3.937,28.558,28.558,0,0,0-1.789-9.844,10.12,10.12,0,0,1-.963-3.8,8.642,8.642,0,0,1,1.333-3.7,25.7,25.7,0,0,1,10.943-11.947l5.714-3.837c-.781-4.937-1.789-10.136-3.881-14.676a26.1,26.1,0,0,0-9.455-11.369A31.242,31.242,0,0,0,312.144,264a20.754,20.754,0,0,0-6.759-1.852c-2.666-.152-5.292.563-7.925,1.007C289.172,264.553,279.417,264.383,272.84,259.15Z" transform="translate(-182.01 -180.736)" fill="#9591e2"/>
    <path id="Path_186" data-name="Path 186" d="M263.9,488.689l-2.718,3.433-5.125,6.47-5.925,7.477-1.655,2.089h-3.211l-79.508.093-49.792.055h-2.222c-.3-.926-.57-1.852-.822-2.815q-.556-2.066-.974-4.185c-.059-.27-.111-.541-.159-.815l18.065-11.81,6.792-.037h0l20.776-.118h0l11.6-.067h3.448l7.733-.041h0l58.936-.337h0l3.015-.018h1.307l3.463-.019,12.884-.074,2.474-.941.181.193Z" transform="translate(-110.589 -324.608)" fill="#3f3d56"/>
    <path id="Path_187" data-name="Path 187" d="M260.752,459.453l-.307.37-2.022,2.381-4.163,4.914-8.729,10.292L168.2,475.437l-58.31-1.481c-.059-.27-.111-.541-.159-.815a70.072,70.072,0,0,1-1.167-14.417l6.466-3.311,1.481-.763,11.529-5.925,10.118-5.185,26.39,3.429,5.844.759,2.644.341,3.87.5.326.044,60.687,7.87,6.707.87,3.937.511,12.132,1.578Z" transform="translate(-108.55 -297.224)" fill="#504f60"/>
    <path id="Path_188" data-name="Path 188" d="M467.931,534.51l-.063,1.455-.37,8.218-1.992,45.181-.422,9.766-1.111,25.124-.626,14.191-2.259-.707q-1.755-.559-3.507-1.141L463,538.088l.115-2.067,2.385-.741Z" transform="translate(-328.32 -354.505)" fill="#3f3d56"/>
    <path id="Path_189" data-name="Path 189" d="M118.039,534.22l-.167,3.8-.244,5.555q-1.059-2.633-1.941-5.366l-.056-.181c-.3-.926-.57-1.852-.822-2.815Z" transform="translate(-112.491 -354.322)" fill="#3f3d56"/>
    <ellipse id="Ellipse_29" data-name="Ellipse 29" cx="17.036" cy="22.961" rx="17.036" ry="22.961" transform="translate(85.356 77.981)" fill="#a1616a"/>
    <ellipse id="Ellipse_30" data-name="Ellipse 30" cx="17.036" cy="22.961" rx="17.036" ry="22.961" transform="translate(85.356 77.981)" opacity="0.1"/>
    <circle id="Ellipse_31" data-name="Ellipse 31" cx="23.702" cy="23.702" r="23.702" transform="translate(81.097 63.353)" fill="#a1616a"/>
    <path id="Path_190" data-name="Path 190" d="M348.255,183.983a30.345,30.345,0,0,0-4.3.655c-3.748.911-6.988,2.933-10.144,4.918a12.071,12.071,0,0,0-3.748,3.133c-1.578,2.352-.967,5.344-1.852,7.955a22.913,22.913,0,0,1-2.018,3.792,45.149,45.149,0,0,0-4.007,10.9c-.207.77-.267,1.815.574,2.111a2.314,2.314,0,0,0,1.437-.163c2.655-.878,6.029-1.13,8,.652s1.8,4.94,4.148,6.3c2.685,1.567,6.877-.326,9.314,1.522,1.044.793,1.422,2.063,2.278,3.018,1.992,2.222,5.825,2.115,9.014,1.667,1.829-.259,4.074-.433,5.185.852.533.607.685,1.441,1.3,1.989,1.111.993,3.144.489,4.229-.53s1.6-2.4,2.507-3.54c1.759-2.222,4.851-3.433,6.666-5.629,1.518-1.852,1.978-4.17,2.392-6.407l1.544-8.292c.626-3.363,1.2-7.036-.7-10-.674-1.067-1.641-1.985-2.222-3.089-.389-.741-.607-1.522-1.059-2.222a9.224,9.224,0,0,0-1.9-1.918l-3.655-3.026a30.737,30.737,0,0,0-4-2.963C362.031,182.628,354.217,183.428,348.255,183.983Z" transform="translate(-242.985 -133.459)" fill="#464353"/>
    <path id="Path_191" data-name="Path 191" d="M138.3,342.2c-.878.933-1.689,1.941-2.629,2.815a31.842,31.842,0,0,1-2.592,2.074q-2.178,1.629-4.259,3.374a23.854,23.854,0,0,0-3.9,3.9c-1.978,2.655-2.915,5.959-4.766,8.7-1.637,2.433-3.944,4.355-5.607,6.77a10.473,10.473,0,0,0-1.6,3.359,15.606,15.606,0,0,0-.33,3.552,26.377,26.377,0,0,0,.337,5.848,8.868,8.868,0,0,0,2.781,5.051,12.2,12.2,0,0,0,4.966,2.148,4.471,4.471,0,0,0,2.763.078,4.555,4.555,0,0,0,1.607-1.355l4.507-5.185c3.015-3.481,6.148-7.036,10.284-9.073,1.3-.633,2.663-1.111,3.963-1.726,5.511-2.655,9.407-8.092,10.918-14.017.37-1.448.607-2.926.848-4.4l.652-4.051a1.293,1.293,0,0,0,0-.618,1.332,1.332,0,0,0-.474-.563,78.559,78.559,0,0,1-8.792-8.3,20.3,20.3,0,0,0-1.992-2.281c-.933-.741-.863-.685-1.985,0A23.8,23.8,0,0,0,138.3,342.2Z" transform="translate(-111.094 -230.622)" fill="#a1616a"/>
    <path id="Path_192" data-name="Path 192" d="M262.492,421.829a.7.7,0,1,0-1.252.607l-.37.181,11.043,22.635,2-.974-11.043-22.65Z" transform="translate(-204.459 -283.291)" fill="#3f3d56"/>
    <path id="Path_193" data-name="Path 193" d="M138.3,342.2c-.878.933-1.689,1.941-2.629,2.815a31.842,31.842,0,0,1-2.592,2.074q-2.178,1.629-4.259,3.374a23.854,23.854,0,0,0-3.9,3.9c-1.978,2.655-2.915,5.959-4.766,8.7-1.637,2.433-3.944,4.355-5.607,6.77a10.473,10.473,0,0,0-1.6,3.359,15.606,15.606,0,0,0-.33,3.552,26.377,26.377,0,0,0,.337,5.848,8.868,8.868,0,0,0,2.781,5.051,12.2,12.2,0,0,0,4.966,2.148,4.471,4.471,0,0,0,2.763.078,4.555,4.555,0,0,0,1.607-1.355l4.507-5.185c3.015-3.481,6.148-7.036,10.284-9.073,1.3-.633,2.663-1.111,3.963-1.726,5.511-2.655,9.407-8.092,10.918-14.017.37-1.448.607-2.926.848-4.4l.652-4.051a1.293,1.293,0,0,0,0-.618,1.332,1.332,0,0,0-.474-.563,78.559,78.559,0,0,1-8.792-8.3,20.3,20.3,0,0,0-1.992-2.281c-.933-.741-.863-.685-1.985,0A23.8,23.8,0,0,0,138.3,342.2Z" transform="translate(-111.094 -230.622)" opacity="0.04"/>
    <path id="Path_194" data-name="Path 194" d="M479.977,405.045A17.292,17.292,0,0,1,478.866,412a3.7,3.7,0,0,1-2.059,2.159,4.792,4.792,0,0,1-1.811.067,65.428,65.428,0,0,0-21.661,1.718c1.889-3.777.8-8.307,1.326-12.5.144-1.144.407-2.27.507-3.418.37-4.074-1.374-8.029-2.174-12.051a26.961,26.961,0,0,1,0-10.547,7.037,7.037,0,0,1,.907-2.537,5.954,5.954,0,0,1,2.081-1.811c3-1.707,6.536-1.9,9.906-1.678,2.27.152,6.822-.063,8.714,1.333,2.07,1.529,2.726,6.666,3.285,9.04a76.463,76.463,0,0,1,1.7,11.062A118.864,118.864,0,0,1,479.977,405.045Z" transform="translate(-325.105 -251.752)" fill="#a1616a"/>
    <path id="Path_195" data-name="Path 195" d="M59.98,436.03l13.332,8.888,59.995-2.222L93.681,436.03Z" transform="translate(-37.766 -274.538)" fill="#fff"/>
    <path id="Path_196" data-name="Path 196" d="M189.793,287.584c-2.189,1.929-4.044,4.2-6.118,6.259a84.176,84.176,0,0,1-9.3,7.61,6.918,6.918,0,0,1,4.814,4.851c.141.544.211,1.111.37,1.644a8.984,8.984,0,0,0,2.059,3.333c3.755,4.233,9.01,7.366,11.225,12.591a1.163,1.163,0,0,0,.444.63.974.974,0,0,0,.574.067c2-.211,3.537-1.826,4.814-3.4a35.5,35.5,0,0,0,6.3-11.08,19.751,19.751,0,0,0,.093-12.591,32.228,32.228,0,0,0-2.915-5.677q-1.441-2.4-2.874-4.785c-.5-.841-1.137-2.548-2.118-2.963C195.045,283.166,191.153,286.225,189.793,287.584Z" transform="translate(-150 -196.711)" fill="#9591e2"/>
    <path id="Path_197" data-name="Path 197" d="M468.389,345.715l3.152,7.407a22.9,22.9,0,0,0-20.7,2.87,11.629,11.629,0,0,0-4.255,4.951,2.163,2.163,0,0,1-2.144-.841,4.3,4.3,0,0,1-.793-2.266c-.293-2.844.785-5.633,1.852-8.292a11.943,11.943,0,0,1,1.889-3.526,11.034,11.034,0,0,1,3.222-2.307,71.753,71.753,0,0,1,11.684-5.163c1.7-.552,3.489-.541,4.444,1.052C467.845,341.5,467.523,343.693,468.389,345.715Z" transform="translate(-319.517 -230.908)" fill="#9591e2"/>
    <path id="Path_198" data-name="Path 198" d="M138.4,414.164c.789.63,1.481,1.374,2.292,1.974a16.377,16.377,0,0,0,2.726,1.529l3.652,1.755a20.462,20.462,0,0,0,3.537,1.437c1.563.418,3.2.459,4.774.848,1.981.489,3.792,1.507,5.744,2.1s4.237.685,5.866-.541c1.018-.767,1.789-2.033,3.052-2.222a4.038,4.038,0,0,1,2.326.667l9.5,5a7.24,7.24,0,0,1,3.307,2.707c.67,1.285.219,3.237-1.192,3.57a13.03,13.03,0,0,1-1.481.085,1.161,1.161,0,0,0-1.089.841,1.688,1.688,0,0,0,.233.87,3.641,3.641,0,0,1,.056,3.1,2.214,2.214,0,0,1-2.689,1.111c.167,1.433-1.392,2.437-2.781,2.818-3.5.959-7.218.37-10.8-.237a14.8,14.8,0,0,1-4.118-1.111c-.615-.3-1.185-.685-1.807-.963a12.9,12.9,0,0,0-5.514-.626c-8.633.152-17.191-1.448-25.679-3.04a12.42,12.42,0,0,1-4.537-1.481c-2.592-1.689-3.555-5.155-3.129-8.221s1.981-5.844,3.511-8.54l1.981-3.492a4.5,4.5,0,0,1,1.067-1.407C130.118,410.457,135.9,412.157,138.4,414.164Z" transform="translate(-116.104 -277.133)" fill="#a1616a"/>
    <path id="Path_199" data-name="Path 199" d="M138.4,414.164c.789.63,1.481,1.374,2.292,1.974a16.377,16.377,0,0,0,2.726,1.529l3.652,1.755a20.462,20.462,0,0,0,3.537,1.437c1.563.418,3.2.459,4.774.848,1.981.489,3.792,1.507,5.744,2.1s4.237.685,5.866-.541c1.018-.767,1.789-2.033,3.052-2.222a4.038,4.038,0,0,1,2.326.667l9.5,5a7.24,7.24,0,0,1,3.307,2.707c.67,1.285.219,3.237-1.192,3.57a13.03,13.03,0,0,1-1.481.085,1.161,1.161,0,0,0-1.089.841,1.688,1.688,0,0,0,.233.87,3.641,3.641,0,0,1,.056,3.1,2.214,2.214,0,0,1-2.689,1.111c.167,1.433-1.392,2.437-2.781,2.818-3.5.959-7.218.37-10.8-.237a14.8,14.8,0,0,1-4.118-1.111c-.615-.3-1.185-.685-1.807-.963a12.9,12.9,0,0,0-5.514-.626c-8.633.152-17.191-1.448-25.679-3.04a12.42,12.42,0,0,1-4.537-1.481c-2.592-1.689-3.555-5.155-3.129-8.221s1.981-5.844,3.511-8.54l1.981-3.492a4.5,4.5,0,0,1,1.067-1.407C130.118,410.457,135.9,412.157,138.4,414.164Z" transform="translate(-116.104 -277.133)" opacity="0.04"/>
    <path id="Path_200" data-name="Path 200" d="M346.7,433.582c-1.929.911-4.144,1-6.159,1.7a36.478,36.478,0,0,0-5.574,2.985c-4.814,2.689-10.369,3.7-15.825,4.67a46.16,46.16,0,0,1-10,1.044c-4.511-.193-8.844-1.7-13.214-2.829s-9.033-1.9-13.362-.622a15.04,15.04,0,0,0-9.814,9.418,21.691,21.691,0,0,0-.859,8.34c.911.67,2.185-.259,2.681-1.278s.767-2.266,1.729-2.859c1.67.567,2.078,2.792,3.455,3.892a6.239,6.239,0,0,0,3.1,1.026l5.629.8c1.355.193,2.929.322,3.911-.633.478-.463.741-1.111,1.178-1.607a4.368,4.368,0,0,1,3.726-1.03c4.163.415,8.066,3.115,12.2,2.474a23.133,23.133,0,0,0,4.1-1.3c8.033-2.837,16.958-1.111,25.316-2.737a56.5,56.5,0,0,0,9.292-2.87,18.789,18.789,0,0,0,4.722-2.341A9.94,9.94,0,0,0,356.77,441a10.08,10.08,0,0,0-3.559-6.533,12.6,12.6,0,0,0-2.289-1.967C349.43,431.849,347.967,432.986,346.7,433.582Z" transform="translate(-211.36 -290.151)" fill="#a1616a"/>
    <g id="Group_72" data-name="Group 72" transform="translate(79.811 56.257)" opacity="0.1">
      <path id="Path_201" data-name="Path 201" d="M368.764,240.223c-.618-.548-.77-1.381-1.3-1.989-1.111-1.285-3.355-1.111-5.185-.852-3.189.448-7.036.552-9.014-1.667-.855-.955-1.233-2.222-2.278-3.018-2.437-1.852-6.629.044-9.314-1.522-2.344-1.367-2.192-4.537-4.148-6.3s-5.344-1.53-8-.652a2.314,2.314,0,0,1-1.437.163c-.841-.3-.781-1.341-.574-2.111a45.153,45.153,0,0,1,4.007-10.9,22.911,22.911,0,0,0,2.018-3.792c.8-2.348.393-5,1.448-7.225a9.972,9.972,0,0,0-2.922,2.592c-1.578,2.352-.967,5.344-1.852,7.955a22.914,22.914,0,0,1-2.018,3.792,45.148,45.148,0,0,0-4.007,10.9c-.207.77-.267,1.815.574,2.111a2.315,2.315,0,0,0,1.437-.163c2.655-.878,6.029-1.129,8,.652s1.8,4.94,4.148,6.3c2.685,1.567,6.877-.326,9.314,1.522,1.044.793,1.422,2.063,2.278,3.018,1.992,2.222,5.825,2.115,9.014,1.667,1.829-.259,4.074-.433,5.185.852.533.607.685,1.441,1.3,1.989,1.111.992,3.144.489,4.229-.53a11.229,11.229,0,0,0,1.77-2.422A2.755,2.755,0,0,1,368.764,240.223Z" transform="translate(-324.055 -200.36)"/>
      <path id="Path_202" data-name="Path 202" d="M461.873,291.283a10.521,10.521,0,0,0-.663.959,20.079,20.079,0,0,0,3.992-3.255,7.858,7.858,0,0,0,.741-1.067A19.45,19.45,0,0,0,461.873,291.283Z" transform="translate(-410.417 -255.493)"/>
    </g>
    <path id="Path_203" data-name="Path 203" d="M556.48,446.53l1.111,106.287,5.185-.741L561.665,446.53Z" transform="translate(-350.394 -281.149)" fill="#3f3d56"/>
    <path id="Path_204" data-name="Path 204" d="M640.48,498.53l1.111,106.287,5.185-.741L645.665,498.53Z" transform="translate(-403.285 -313.892)" fill="#3f3d56"/>
    <path id="Path_205" data-name="Path 205" d="M1000.762,600.7h0l-.022-2.041v-1.215l-.2-18.695-.307-29.227-.052-2.522H995l.026,2.429.163,15.654.07,6.777h0l.059,5.488.1,9.488.059,5.6h0v.593l.078,7.355.067,6.485.422-.467q1.018-1.137,1.992-2.311Z" transform="translate(-666.713 -362.369)" fill="#3f3d56"/>
    <path id="Path_206" data-name="Path 206" d="M619.943,545.03l-2.963,4.429,2.963,20.18,25.183,6.892h40.737l24.442,1.478,11.643-7.97-2.015-13.688-8.888-11.321Z" transform="translate(-388.488 -343.171)" fill="#9591e2"/>
    <path id="Path_207" data-name="Path 207" d="M722.487,605.48l-1.481,12.3s-7.777,24.12,54.81,22.642,51.847-6.4,51.847-6.4l-.37-14.273s2.181,6.755-29.627,5.84-61.476-3.87-61.476-3.87S725.08,623.69,722.487,605.48Z" transform="translate(-493.996 -399.192)" fill="#3f3d56"/>
    <path id="Path_208" data-name="Path 208" d="M840.848,304.924a17.894,17.894,0,0,0-8.084,8.262,53.337,53.337,0,0,0-3.833,11.11,98.918,98.918,0,0,0-2.67,12.132c-.978,7.3-.244,14.98,3.111,21.539s9.555,11.851,16.813,13.114a30.943,30.943,0,0,0,8.518.1,69.252,69.252,0,0,0,15.039-3.315c5.092-1.722,10.392-4.374,12.658-9.258,1.315-2.833,1.426-6.062,1.363-9.181a97.671,97.671,0,0,0-3.818-25.105,21.374,21.374,0,0,0-2.933-6.755,20.707,20.707,0,0,0-5.462-4.814C862.887,306.921,851.5,300.08,840.848,304.924Z" transform="translate(-560.213 -208.908)" fill="#fbbebe"/>
    <path id="Path_209" data-name="Path 209" d="M840.848,304.924a17.894,17.894,0,0,0-8.084,8.262,53.337,53.337,0,0,0-3.833,11.11,98.918,98.918,0,0,0-2.67,12.132c-.978,7.3-.244,14.98,3.111,21.539s9.555,11.851,16.813,13.114a30.943,30.943,0,0,0,8.518.1,69.252,69.252,0,0,0,15.039-3.315c5.092-1.722,10.392-4.374,12.658-9.258,1.315-2.833,1.426-6.062,1.363-9.181a97.671,97.671,0,0,0-3.818-25.105,21.374,21.374,0,0,0-2.933-6.755,20.707,20.707,0,0,0-5.462-4.814C862.887,306.921,851.5,300.08,840.848,304.924Z" transform="translate(-560.213 -208.908)" opacity="0.05"/>
    <path id="Path_210" data-name="Path 210" d="M800.065,379.361a16.809,16.809,0,0,0,3.7,3.7c3.526,2.437,8.051,2.766,12.332,2.9,3.437.1,7.377-.093,9.532-2.774a11.1,11.1,0,0,0,1.8-4.248,188.449,188.449,0,0,0,5.148-28.061l9.806.033c4.244,18.172,3.9,37.063,3.526,55.725l-.537,27.212-6.318-.67c-15-1.589-30.027-3.178-45.111-3.452a258.043,258.043,0,0,0-26.487.874L781.218,389.7c1.785-5.318,3.589-10.706,4.007-16.295.6-8.107-1.67-16.665,1.481-24.165a2.938,2.938,0,0,1,1.144-1.544,3.25,3.25,0,0,1,1.959-.152c1.244.167,5.048,0,5.951.8,1.333,1.155.452,1.329-.018,3.192a38.96,38.96,0,0,0-1.626,9.892A29.215,29.215,0,0,0,800.065,379.361Z" transform="translate(-523.44 -236.73)" fill="#9591e2"/>
    <path id="Path_211" data-name="Path 211" d="M969.159,449.428h0q2.478-3.289,4.67-6.811c-.741-1.585-1.555-3.133-2.2-4.751a47.755,47.755,0,0,1-2.126-7.721q-.289-1.333-.574-2.666C966.851,417.808,964.9,408,964.5,398.2q-.056-1.222-.07-2.444v-3.044c.044-2.222.185-4.463.441-6.692.048-.437.1-.874.163-1.311a1.892,1.892,0,0,1,.037-.285l25.183-.918h0l2.118-.078a7.761,7.761,0,0,0,4.2-.959c2.018-1.385,2.255-4.226,2.222-6.666a98.946,98.946,0,0,0-2.089-18.35c-.955-4.54-2.318-9.181-5.377-12.669-2.511-2.866-6.148-4.951-7.455-8.518a38.464,38.464,0,0,0-1.237-4.048,12.611,12.611,0,0,0-2.652-3.174,44.19,44.19,0,0,1-8.481-11.747c-1.5-3.022-3.126-6.355-5.085-8.444-.1-.107-.193-.207-.293-.3-1.667-1.648-3.574-2.37-5.833-1.248a7.475,7.475,0,0,0-1.156.718h0a14.075,14.075,0,0,0-2.2,2.089,49.992,49.992,0,0,0-5.973,8.518,47.335,47.335,0,0,0-3.052,6.666,45.955,45.955,0,0,0-1.648,5.555c-.318,1.4-.57,2.807-.77,4.222a102.72,102.72,0,0,0-.637,16.124c.111,4.948.33,9.907.778,14.836q.167,1.789.37,3.574.407,3.529,1.007,7.036c.159.893.322,1.785.5,2.674.044.237.093.474.141.707l.022.1a60.192,60.192,0,0,1,1.137,6.262q.044.4.067.789a30.481,30.481,0,0,1-.03,3.633c-.085,1.43-.219,2.855-.285,4.285a6.963,6.963,0,0,1-.026.741c-.018.722,0,1.444,0,2.166a34.343,34.343,0,0,0,.615,5.144,33.274,33.274,0,0,0,3.2,9.051c.141.267.285.53.43.789,1.878,3.355,4.248,6.433,5.985,9.866a42.592,42.592,0,0,1,3.333,9.707q.37,1.663.7,3.333c.344,1.778.652,3.57.967,5.362.03.178.063.37.1.533.418,2.378.859,4.744,1.426,7.066.33,1.352.7,2.685,1.133,4Z" transform="translate(-635.11 -211.098)" fill="#464353"/>
    <path id="Path_212" data-name="Path 212" d="M880.459,582.463c0,.333-.022.667-.037,1a47.473,47.473,0,0,1-.448,4.855,31.59,31.59,0,0,1-1.6,6.44,21.719,21.719,0,0,1-1.911,3.929,18.109,18.109,0,0,1-2.378,3.063c-2.222,2.311-5.422,3.048-8.518,4.022a20.971,20.971,0,0,0-4.107,1.678c-.233.13-.463.27-.685.419l-3.874,2.566a11.59,11.59,0,0,0-3.27,2.8,6.031,6.031,0,0,0-.37.626,14.188,14.188,0,0,0-1.141,3.422c-2.015,8.392-4.033,16.791-5.414,25.309-.093.563-.181,1.13-.278,1.7l-.033.178a.91.91,0,0,0-.059-.122,222.884,222.884,0,0,1-30.775,15.728l-2.3-19.258a23.291,23.291,0,0,1-.237-4.733c.218-2.492,1.233-4.855,1.507-7.34a12.506,12.506,0,0,0-1.322-7.062,7.723,7.723,0,0,1-1.085-2.618,1.629,1.629,0,0,1,1.392-1.9,3.421,3.421,0,0,0,.581-3.055,8.887,8.887,0,0,0-.518-1.692c-.63-1.548-1.426-3.233-.885-4.814a1.8,1.8,0,0,0,.185-.926.151.151,0,0,0,0-.059c-.126-.415-.618-.6-.874-.948-.481-.656,0-1.548.3-2.3a8.789,8.789,0,0,0,.5-2.522c.041-.478.07-.959.122-1.433a14.452,14.452,0,0,1,.344-1.9,15.024,15.024,0,0,1,6.085-8.71c1.441-.97,3.044-1.678,4.514-2.592a41.347,41.347,0,0,0,4.3-3.333q4.892-4.074,10.173-7.681a128.517,128.517,0,0,1,11.747-7.133q1.3-.7,2.592-1.363,1.411-.741,2.841-1.4c3.052-1.455,6.514-.911,9.888.059,1.415.4,2.811.885,4.159,1.322a19.263,19.263,0,0,1,3.777,1.7,13.93,13.93,0,0,1,6.485,7.622.4.4,0,0,1,0,.063A19.393,19.393,0,0,1,880.459,582.463Z" transform="translate(-551.358 -373.323)" fill="#f86d70"/>
    <path id="Path_213" data-name="Path 213" d="M880.459,582.463c0,.333-.022.667-.037,1a47.473,47.473,0,0,1-.448,4.855,31.59,31.59,0,0,1-1.6,6.44,21.719,21.719,0,0,1-1.911,3.929,18.109,18.109,0,0,1-2.378,3.063c-2.222,2.311-5.422,3.048-8.518,4.022a20.971,20.971,0,0,0-4.107,1.678c-.233.13-.463.27-.685.419l-3.874,2.566a11.59,11.59,0,0,0-3.27,2.8,6.031,6.031,0,0,0-.37.626,14.188,14.188,0,0,0-1.141,3.422c-2.015,8.392-4.033,16.791-5.414,25.309-.093.563-.181,1.13-.278,1.7l-.033.178a.91.91,0,0,0-.059-.122,222.884,222.884,0,0,1-30.775,15.728l-2.3-19.258a23.291,23.291,0,0,1-.237-4.733c.218-2.492,1.233-4.855,1.507-7.34a12.506,12.506,0,0,0-1.322-7.062,7.723,7.723,0,0,1-1.085-2.618,1.629,1.629,0,0,1,1.392-1.9,3.421,3.421,0,0,0,.581-3.055,8.887,8.887,0,0,0-.518-1.692c-.63-1.548-1.426-3.233-.885-4.814a1.8,1.8,0,0,0,.185-.926.151.151,0,0,0,0-.059c-.126-.415-.618-.6-.874-.948-.481-.656,0-1.548.3-2.3a8.789,8.789,0,0,0,.5-2.522c.041-.478.07-.959.122-1.433a14.452,14.452,0,0,1,.344-1.9,15.024,15.024,0,0,1,6.085-8.71c1.441-.97,3.044-1.678,4.514-2.592a41.347,41.347,0,0,0,4.3-3.333q4.892-4.074,10.173-7.681a128.517,128.517,0,0,1,11.747-7.133q1.3-.7,2.592-1.363,1.411-.741,2.841-1.4c3.052-1.455,6.514-.911,9.888.059,1.415.4,2.811.885,4.159,1.322a19.263,19.263,0,0,1,3.777,1.7,13.93,13.93,0,0,1,6.485,7.622.4.4,0,0,1,0,.063A19.393,19.393,0,0,1,880.459,582.463Z" transform="translate(-551.358 -373.323)" opacity="0.1"/>
    <path id="Path_214" data-name="Path 214" d="M899.492,446.829a.7.7,0,1,0-1.252.607l-.37.181,11.043,22.635,2-.974-11.044-22.65Z" transform="translate(-605.554 -299.032)" fill="#3f3d56"/>
    <circle id="Ellipse_32" data-name="Ellipse 32" cx="23.702" cy="23.702" r="23.702" transform="translate(284.042 76.685)" fill="#fbbebe"/>
    <path id="Path_215" data-name="Path 215" d="M931.452,206.274a31.472,31.472,0,0,0-.837-5.588c-1.392-5.988-3.937-11.884-8.318-16.184a32.375,32.375,0,0,0-.967-3.107.561.561,0,0,0-.026-.074,34.772,34.772,0,0,0-5.592-9.914c-1.389-1.726-3.189-3.429-5.4-3.5a4.381,4.381,0,0,1-1.852-.2,3.333,3.333,0,0,1-1.033-1.059,9.7,9.7,0,0,0-9.392-3.514l-.23.048c-.13.026-.259.056-.37.089s-.311.089-.467.137q.255.422.5.855.659,1.174,1.222,2.4.467,1.022.863,2.078c-3.792.433-6.881,3.126-9.7,5.688l-6.644,6.029a.281.281,0,0,0-.033.033l-.193.185c-.048.048-.1.1-.141.148a.321.321,0,0,0-.048.052c-.056.059-.107.122-.159.185a2.791,2.791,0,0,0-.248.37,1.355,1.355,0,0,0-.1.174.372.372,0,0,0-.026.056,1.36,1.36,0,0,0-.063.156.052.052,0,0,0,0,.022.854.854,0,0,0-.026.093,1.111,1.111,0,0,0,.063.785l4.381.048h.515c.022.585.041,1.174.063,1.759a24.968,24.968,0,0,0-2,1.667,21.729,21.729,0,0,0-1.952,2.059A28.42,28.42,0,0,0,877.02,205.4v2.266c0,.37.033.741.063,1.111a2.774,2.774,0,0,0,.37,1.374,1.287,1.287,0,0,0,.1.133,2.556,2.556,0,0,0,.785.578l.318.156h0c.159.078.311.152.459.237,1.4.789,2.222,2.311,3.492,3.289.074.056.148.111.222.159l.167.111.1.067.141.081a3.033,3.033,0,0,0,.285.152h0l.178.089h.03c.148.067.3.13.448.185l.211.074.063.022c.059.019.122.041.185.056q.189.056.37.1l.37.081c.144.026.293.052.441.07l.219.03.222.022q.53.048,1.067.056h0a26.67,26.67,0,0,0,3.359-.233l9.451-1.111a20.364,20.364,0,0,1,6.448-.059,42.5,42.5,0,0,1,5.185,1.826c.393.137.785.263,1.181.37.144.041.293.085.441.122l.2.052.474.115c.17.041.341.081.511.115.241.052.478.1.718.141.163.033.33.059.5.089h.033l.474.074h.115l.352.048c.17.026.341.048.515.067q.567.07,1.133.122c.611.059,1.226.1,1.852.141l.615.037.615.03,1.852.081h.341a9.555,9.555,0,0,0,2.3-.118c.133-.026.263-.056.393-.093s.237-.074.37-.118a6.341,6.341,0,0,0,3.107-3.07c.148-.278.285-.556.411-.841s.241-.574.344-.863c.13-.37.241-.722.337-1.092.03-.1.056-.2.078-.3s.074-.307.1-.463c.093-.426.163-.855.215-1.289a3.948,3.948,0,0,1,.048-.415c.033-.37.059-.715.074-1.078v-.83C931.478,207.052,931.452,206.656,931.452,206.274Zm-9.5-22.109c-.3-.281-.607-.552-.918-.807a3.827,3.827,0,0,1,.915.807Z" transform="translate(-592.426 -120.561)" fill="#464353"/>
    <path id="Path_216" data-name="Path 216" d="M744.7,308.034c-2.789-.344-5.555-1.567-8.307-.967a11.511,11.511,0,0,0-4.581,2.54,55.7,55.7,0,0,0-12.877,14.721,7.777,7.777,0,0,0-1.189,2.785,7.382,7.382,0,0,0,.511,3.437c2.533,7.484,7.951,13.736,10.418,21.243,2.592,7.9,1.692,16.524-.219,24.613a102.862,102.862,0,0,1-11.421,28.4,16.2,16.2,0,0,1-2.629,3.6c-1.348,1.3-3.159,2.222-3.959,3.918a17.57,17.57,0,0,0-.741,2.378c-.741,2.222-2.533,4.126-2.707,6.47-.13,1.789.719,3.481,1.233,5.185a14.288,14.288,0,0,1-.263,8.925c-1.878,5.148-6.788,9.829-5.362,15.121,3.181-.915,6.707-2.1,8.207-5.055.529-1.044.792-2.289,1.685-3.052,1.781-1.515,4.814-.144,6.707-1.537,1.43-1.059,1.481-3.229.844-4.9s-1.733-3.133-2.222-4.848c-.852-3.092.511-6.362.259-9.558-.118-1.481-.574-2.9-.607-4.374a10.271,10.271,0,0,1,3.629-7.5,30.163,30.163,0,0,1,7.273-4.5l9.688-4.814c3.515-1.741,7.366-3.863,8.518-7.61a15.418,15.418,0,0,0,.463-4.366c.33-22.409,5.944-44.366,11.525-66.072a81.873,81.873,0,0,1,3.037-9.969c1.289-3.229,3.811-5.822,5.1-8.821C759.252,302.557,752.441,309,744.7,308.034Z" transform="translate(-482.442 -208.952)" fill="#464353"/>
    <path id="Path_217" data-name="Path 217" d="M827.4,600.118c.856,5.185,1.378,10.481,1.785,15.75a180.179,180.179,0,0,1-21.135,14.791c-.415.256-.833.507-1.252.741l-.033.178a.913.913,0,0,0-.059-.122,5.573,5.573,0,0,0-2.785-2.748q-4.1-8.61-8.192-17.221a45.228,45.228,0,0,1-3.7-9.573,1.486,1.486,0,0,0-.044-.215c-.563-2.592-.693-5.285-1.067-7.91a22.852,22.852,0,0,0-1.011-4.422c-.444-1.278-1.055-2.518-1.6-3.766a12.545,12.545,0,0,1-1.252-4.763,3.113,3.113,0,0,0-.226-1.555,4.033,4.033,0,0,0-1.011-.978,3.855,3.855,0,0,1-1.244-3.522c-2.222.115-3.474,2.5-4.366,4.529a24.7,24.7,0,0,1-3.17,5.555,10.536,10.536,0,0,1-3.511,2.922c-.122.059-.244.119-.37.17-3.092,1.363-6.7.881-10.055.267-2.929-.537-5.959-1.2-8.314-3.026l-.252-.2a10.878,10.878,0,0,1-1.852-1.978c-1.974-2.7-2.848-6.248-3.333-9.629-.044-.319-.089-.637-.13-.955a35.622,35.622,0,0,1-.278-7.214c.044-.592.107-1.185.185-1.774.052-.37.107-.77.17-1.155a.109.109,0,0,1,0-.033c.1-.611.2-1.226.3-1.852a17.022,17.022,0,0,1,1.852-6.062,11.479,11.479,0,0,1,2.726-2.918c.4-.315.811-.615,1.226-.9.674-.467,1.367-.911,2.07-1.33a35.778,35.778,0,0,1,5.555-2.7c.459-.178.926-.344,1.392-.5a10.928,10.928,0,0,1,5.659-.448,29.79,29.79,0,0,0,5.066.3,127.7,127.7,0,0,0,13.043-1.452c6.022-.741,12.491-.83,17.743,2.222.252.144.5.3.741.456a21.943,21.943,0,0,1,6.366,6.729c.37.559.693,1.133,1.011,1.715a43.67,43.67,0,0,1,1.989,4.111,5.112,5.112,0,0,1,.552,2.222,2.888,2.888,0,0,1-.059.437c-.1.526-.3,1.037-.37,1.57-.233,2.018,1.481,3.7,2.122,5.625a27.567,27.567,0,0,1,.6,3.911,20.343,20.343,0,0,0,2.059,5.185,64.863,64.863,0,0,1,3.3,8.284c.644,1.974,1.2,3.978,1.681,6q.237.974.448,1.952C826.774,596.6,827.1,598.352,827.4,600.118Z" transform="translate(-511.734 -360.452)" fill="#f86d70"/>
    <path id="Path_218" data-name="Path 218" d="M703.967,464.4v2.592l-.478-.007-.533-.007L697,466.9l-14.673-.193-4.118-.052-1.067-.015-6.181-.078-8.71-.115-18.48-.241-32.068-.415-11.573-.148-4.644-.059-4.274-.056-2.663-.037-2.522-.033-18.7-.241-5.185-.067-1.129-.015-.733-1.892L554.954,449.5l-.974-2.511.741-2.963,3.333,2.222,2.052.256,33.779,4.2,6.34.789,13.443,1.674,13.169,1.637,5.162.641,30.549,3.8,8.536,1.063,7.066.878,25.124,3.126Z" transform="translate(-348.82 -279.575)" fill="#3f3d56"/>
    <path id="Path_219" data-name="Path 219" d="M555.98,444.03l6.666,17.406,142.58,2.963V445.511Z" transform="translate(-350.079 -279.575)" fill="#504f60"/>
    <path id="Path_220" data-name="Path 220" d="M575.98,496.03l1.111,106.287,5.185-.741L581.165,496.03Z" transform="translate(-362.672 -312.318)" fill="#3f3d56"/>
    <path id="Path_221" data-name="Path 221" d="M1055.089,551.675h-.533a117.231,117.231,0,0,1-4.27,19.55L1048.6,551.6l-.07-.837,6.229-.719.208-.022Z" transform="translate(-700.419 -364.271)" fill="#3f3d56"/>
    <path id="Path_222" data-name="Path 222" d="M782.085,460.066l-54.254,1.111-16.85-5.555,45.181-2.592Z" transform="translate(-447.677 -285.242)" fill="#fff"/>
    <path id="Path_223" data-name="Path 223" d="M822.6,458.36a3.638,3.638,0,0,0-1.481,1.055,3.913,3.913,0,0,0-.552,1.681l-.911,5.433a2.4,2.4,0,0,0,.07,1.507c.237.456.926.693,1.27.315a4.878,4.878,0,0,0,.667,3.063,2.136,2.136,0,0,0,2.789.718,1.807,1.807,0,0,0,2.722.422c-.526.178-.563.981-.189,1.389a2.419,2.419,0,0,0,1.511.6,36.956,36.956,0,0,0,19.221-2.418c.574-.237-.937-7.314-1.089-8.04-.37-1.707-.556-3.792-2-4.94-3.444-2.748-9.562-3.289-13.758-2.963A23.7,23.7,0,0,0,822.6,458.36Z" transform="translate(-556.252 -305.134)" fill="#fbbebe"/>
    <path id="Path_224" data-name="Path 224" d="M908.646,455.367c-13.4.256-27.068.474-39.852-3.537a27.035,27.035,0,0,1-.244,14.4l62.631,5.185c2.655.219,13.665,1.463,16.254.837s-21.72-8.633-20.739-11.11c2.7-6.825,11.743-10.825,5.229-11.081C923.7,449.73,916.931,455.211,908.646,455.367Z" transform="translate(-587.093 -301.319)" opacity="0.1"/>
    <path id="Path_225" data-name="Path 225" d="M909.646,457.367c-13.4.256-27.068.474-39.852-3.537a27.034,27.034,0,0,1-.244,14.4l62.632,5.185c2.655.219,13.665,1.481,16.254.837s1.981-3.818,2.963-6.3c2.7-6.825-11.958-15.639-18.472-15.895C924.7,451.73,917.931,457.211,909.646,457.367Z" transform="translate(-587.722 -302.578)" fill="#464353"/>
    <path id="Path_226" data-name="Path 226" d="M877.392,465.36a3.626,3.626,0,0,1,1.481,1.055,3.965,3.965,0,0,1,.555,1.681l.911,5.433a2.429,2.429,0,0,1-.07,1.507c-.237.456-.93.693-1.27.315a4.9,4.9,0,0,1-.667,3.063,2.14,2.14,0,0,1-2.792.718,1.807,1.807,0,0,1-2.722.422c.526.178.567.981.193,1.389a2.429,2.429,0,0,1-1.515.6,36.941,36.941,0,0,1-19.217-2.418c-.574-.237.933-7.314,1.089-8.04.37-1.707.555-3.792,2-4.94,3.44-2.748,9.562-3.289,13.758-2.963A23.7,23.7,0,0,1,877.392,465.36Z" transform="translate(-576.766 -309.542)" fill="#fbbebe"/>
    <path id="Path_227" data-name="Path 227" d="M673.7,387.125a23.706,23.706,0,0,0-3.255,5.051c-1.515,3.526-1.293,7.518-1.041,11.347a6.62,6.62,0,0,0,.741,3.166,5.349,5.349,0,0,0,1.933,1.648c3.207,1.822,6.962,2.366,10.629,2.774q8.421.933,16.9,1.137c14.006.341,28.227-.8,41.87,2.37-1.689-2.566-1.685-5.962-.741-8.888a30.262,30.262,0,0,1,4.544-7.981c-6.244-1.978-12.94,1.111-19.48.8-6.714-.315-12.928-4.2-19.65-4.192a17.879,17.879,0,0,1-4.318-.167,3.6,3.6,0,0,1-2.892-2.848c1.792.4,3.492-1.13,4.233-2.811s.874-3.581,1.592-5.274c1.789-4.211,6.622-6.162,9.629-9.629a2.359,2.359,0,0,0,.167-3.577c-2.5-3.333-6.266-5.185-9.4-7.777-1.089-.9-3.285-4.311-4.507-4.625-2.266-.581-4.189,2.692-5.662,4.289Q683.834,374.071,673.7,387.125Z" transform="translate(-461.583 -243.102)" fill="#464353"/>
    <path id="Path_228" data-name="Path 228" d="M882.39,434.81a12.256,12.256,0,0,1,2.478,2.455,4.229,4.229,0,0,1,.774,3.311,4.948,4.948,0,0,1,3.085-5.122Z" transform="translate(-595.807 -291.727)" opacity="0.07"/>
    <g id="Group_73" data-name="Group 73" transform="translate(284.541 42.577)" opacity="0.1">
      <path id="Path_229" data-name="Path 229" d="M933.455,166.809a32.189,32.189,0,0,0-1.5-3.389,9.09,9.09,0,0,0-1.081.278,31.3,31.3,0,0,1,1.715,3.27A6.213,6.213,0,0,1,933.455,166.809Z" transform="translate(-910.874 -163.42)"/>
      <path id="Path_230" data-name="Path 230" d="M995.87,212c.1.081.2.174.293.259a.535.535,0,0,0-.026-.07Q996.011,212.1,995.87,212Z" transform="translate(-951.802 -194.009)"/>
      <path id="Path_231" data-name="Path 231" d="M895.277,212.559c.193-.152.37-.311.578-.459l-.059-1.759-3.955-.041c-.641.589-1.322,1.433-.944,2.222Z" transform="translate(-885.636 -192.939)"/>
      <path id="Path_232" data-name="Path 232" d="M929.759,284.51a6.325,6.325,0,0,1-3.107,3.07,8.425,8.425,0,0,1-3.392.319c-3.9-.159-7.873-.333-11.562-1.626a40.829,40.829,0,0,0-5.185-1.829,20.258,20.258,0,0,0-6.448.063l-9.451,1.111c-2.789.326-5.9.57-8.121-1.141-1.274-.978-2.1-2.5-3.492-3.285a4.44,4.44,0,0,1-1.67-1.111,2.774,2.774,0,0,1-.37-1.374c-.03-.389-.048-.778-.063-1.167a31.384,31.384,0,0,0,.063,3.389,2.774,2.774,0,0,0,.37,1.374,4.44,4.44,0,0,0,1.67,1.111c1.4.785,2.222,2.307,3.492,3.285,2.222,1.711,5.333,1.481,8.121,1.141l9.451-1.111a20.259,20.259,0,0,1,6.448-.063,41.9,41.9,0,0,1,5.185,1.829c3.7,1.292,7.659,1.481,11.562,1.626a8.491,8.491,0,0,0,3.392-.318,6.325,6.325,0,0,0,3.107-3.07,15.718,15.718,0,0,0,1.6-8.314,14.464,14.464,0,0,1-1.6,6.092Z" transform="translate(-876.877 -235.277)"/>
    </g>
    <path id="Path_233" data-name="Path 233" d="M937.56,179l5.185,4.814S938.3,181.963,937.56,179Z" transform="translate(-630.546 -130.653)" opacity="0.1"/>
  </g>
</svg>
