<svg xmlns="http://www.w3.org/2000/svg" width="385.173" height="344.518" viewBox="0 0 385.173 344.518">
  <g id="Group_4" data-name="Group 4" transform="translate(0 -0.01)">
    <path id="Path_147" data-name="Path 147" d="M890.071,220.8c13.764,20.081,10.718,46.1,10.718,46.1s-25.361-6.544-39.125-26.626-10.718-46.1-10.718-46.1S876.307,200.719,890.071,220.8Z" transform="translate(-529.472 -153.685)" fill="#2f2e41"/>
    <path id="Path_148" data-name="Path 148" d="M907.837,210.831c1.611,24.292,20.1,42.846,20.1,42.846s15.876-20.832,14.266-45.124-20.1-42.846-20.1-42.846S906.227,186.539,907.837,210.831Z" transform="translate(-557.142 -139.881)" fill="#6c63ff"/>
    <path id="Path_149" data-name="Path 149" d="M585.527,116.09l186.867,93.95a8.837,8.837,0,0,1,4.847,8.49L766.384,379.348a4.378,4.378,0,0,1-6.343,3.612L568.913,285.418l9.812-165.407a4.7,4.7,0,0,1,6.8-3.92Z" transform="translate(-392.855 -115.58)" fill="#d0cde1"/>
    <path id="Path_150" data-name="Path 150" d="M590.087,122.464l182.277,91.642a8.619,8.619,0,0,1,4.728,8.282L766.5,379.255a4.271,4.271,0,0,1-6.188,3.524L573.88,287.633l9.571-161.345a4.584,4.584,0,0,1,6.635-3.824Z" transform="translate(-395.263 -118.676)" fill="#3f3d56"/>
    <path id="Path_151" data-name="Path 151" d="M607.022,146.138,772.25,229.208a7.813,7.813,0,0,1,4.286,7.507l-9.6,142.2a3.871,3.871,0,0,1-5.609,3.194l-169-86.247L601.007,149.6a4.155,4.155,0,0,1,6.014-3.466Z" transform="translate(-404.21 -130.178)" fill="#fff"/>
    <path id="Path_152" data-name="Path 152" d="M287.175,523.112,474.281,617.34a12.458,12.458,0,0,0,11.222-.015l138.416-70.264c1.623-1.623,1.4-4.028.877-5.834a13,13,0,0,0-1.023-2.522l-18.862-9.921L446.324,449.66l-9.475-5.03a17.544,17.544,0,0,0-16.3-.066L287.117,513.878a5.181,5.181,0,0,0,.059,9.234Z" transform="translate(-254.855 -274.141)" fill="#d0cde1"/>
    <path id="Path_153" data-name="Path 153" d="M287.173,593.77,474.278,688a12.458,12.458,0,0,0,11.222-.015L623.916,617.72c1.623-1.623,1.4-4.028.877-5.834l-138,71.73a12.038,12.038,0,0,1-10.92.094l-191.491-95.4A5.16,5.16,0,0,0,287.173,593.77Z" transform="translate(-254.852 -344.799)" opacity="0.1"/>
    <path id="Path_154" data-name="Path 154" d="M535.864,624.035,475.27,593.414a8.515,8.515,0,0,0-7.852.09l-35.151,18.779a2.514,2.514,0,0,0,.053,4.463L494.1,647.9a7,7,0,0,0,6.586-.151l35.291-19.882a2.165,2.165,0,0,0-.114-3.832Z" transform="translate(-325.951 -346.831)" opacity="0.1"/>
    <path id="Path_155" data-name="Path 155" d="M670.664,553.114l-65.205,34.64a5.3,5.3,0,0,1-4.882.049L416.345,494.636a3.133,3.133,0,0,1,.024-5.6l63.674-31.516a6.9,6.9,0,0,1,6.17.022l184.423,92.921a1.494,1.494,0,0,1,.029,2.654Z" transform="translate(-318.041 -281.031)" opacity="0.1"/>
    <rect id="Rectangle_26" data-name="Rectangle 26" width="0.731" height="67.025" transform="matrix(0.447, -0.894, 0.894, 0.447, 248.271, 99.98)" fill="#6c63ff"/>
    <rect id="Rectangle_27" data-name="Rectangle 27" width="0.731" height="67.355" transform="translate(248.258 108.77) rotate(-62.909)" fill="#6c63ff"/>
    <rect id="Rectangle_28" data-name="Rectangle 28" width="0.731" height="38.581" transform="matrix(0.455, -0.89, 0.89, 0.455, 259.239, 125.563)" fill="#6c63ff"/>
    <path id="Path_156" data-name="Path 156" d="M345.314,426.559s-14.619-6.37-21.485.359S342.213,431.432,345.314,426.559Z" transform="translate(-273.443 -265.045)" fill="#3f3d56"/>
    <path id="Path_157" data-name="Path 157" d="M314.977,362.27c4.913-8.3,14.632-8.688,14.632-8.688s9.471-1.211,15.547,11.431c5.663,11.784,13.479,23.162,1.258,25.92l-2.207-6.87-1.367,7.382a47.806,47.806,0,0,1-5.229.089c-13.087-.423-25.55.124-25.149-4.573C313,380.719,310.25,370.257,314.977,362.27Z" transform="translate(-268.35 -230.966)" fill="#2f2e41"/>
    <path id="Path_158" data-name="Path 158" d="M294.289,662.62s6.2,11.518,10.189,11.518,3.544,7.531,2.658,9.3-3.1,5.759.443,11.518a7.067,7.067,0,0,1,.2,6.411c-2.276,5.934-11.13,4.136-10.847-2.213q0-.105.011-.211c.443-7.088-3.1-18.163-6.645-20.821s-6.645-9.746-6.645-9.746Z" transform="translate(-254.535 -380.833)" fill="#ffb8b8"/>
    <path id="Path_159" data-name="Path 159" d="M373.528,657.46s-6.2,11.518-10.189,11.518-3.544,7.531-2.658,9.3,3.1,5.759-.443,11.518a7.067,7.067,0,0,0-.2,6.411c2.276,5.934,11.13,4.136,10.847-2.213q0-.1-.011-.211c-.443-7.088,3.1-18.163,6.645-20.821s6.645-9.746,6.645-9.746Z" transform="translate(-291.247 -378.331)" fill="#ffb8b8"/>
    <path id="Path_160" data-name="Path 160" d="M304.53,542.791l2.658,5.759s38.984,12.847,35.44,27.909S321.806,615,319.149,614.114s-16.834-3.544-17.277-11.075,10.189-20.821,10.189-20.821l-14.619-13.29-21.273-.443-18.154,13.733s19.049,16.834,10.632,23.479-20.821,11.075-22.593,8.417-21.707-42.085-18.606-45.629S262,551.651,262,551.651l8.417-11.961,32.782-1.772Z" transform="translate(-227.121 -320.365)" fill="#2f2e41"/>
    <path id="Path_161" data-name="Path 161" d="M343.986,402.325s-2.215,14.619,2.215,16.391-8.86,9.3-8.86,9.3H329.81l-4.873-10.189s4.43-7.974,1.772-15.5S343.986,402.325,343.986,402.325Z" transform="translate(-274.552 -252.994)" fill="#ffb8b8"/>
    <path id="Path_162" data-name="Path 162" d="M343.986,402.325s-2.215,14.619,2.215,16.391-8.86,9.3-8.86,9.3H329.81l-4.873-10.189s4.43-7.974,1.772-15.5S343.986,402.325,343.986,402.325Z" transform="translate(-274.552 -252.994)" opacity="0.1"/>
    <path id="Path_163" data-name="Path 163" d="M341.249,429.557s-4.873,5.316-5.759,6.2-4.873,5.759-13.29-1.329-9.3,1.329-9.3,1.329v53.16s7.088-3.1,12.847,0,17.72-.886,17.72-.886l2.215-54.932Z" transform="translate(-268.714 -267.821)" fill="#d0cde1"/>
    <path id="Path_164" data-name="Path 164" d="M356.266,428.815s4.14-1.772,7.684,0,15.948,10.632,15.062,14.619-12.4,31.9-4.43,45.186,9.3,16.834,9.3,16.834l-19.492-10.189s-15.062-9.3-13.733-15.062S356.266,428.815,356.266,428.815Z" transform="translate(-286.984 -267.08)" fill="#3f3d56"/>
    <path id="Path_165" data-name="Path 165" d="M302.3,429.557s-9.3.886-9.741,1.772-13.954,4.651-13.068,8.638,13.068,39.648,7.752,46.293-14.176,15.948-11.075,16.834,8.417-1.329,13.733,0,17.72-9.746,16.391-21.707S306.286,432.658,302.3,429.557Z" transform="translate(-250.595 -267.821)" fill="#3f3d56"/>
    <path id="Path_166" data-name="Path 166" d="M362.142,591.734v4.43s2.215,10.189-4.873,9.746-2.658-12.4-2.658-12.4l.443-3.987Z" transform="translate(-288.278 -345.386)" fill="#ffb8b8"/>
    <path id="Path_167" data-name="Path 167" d="M323.894,594.679s4.873,10.189,0,11.075-8.417-5.759-8.417-7.531S323.894,594.679,323.894,594.679Z" transform="translate(-269.965 -347.888)" fill="#ffb8b8"/>
    <ellipse id="Ellipse_12" data-name="Ellipse 12" cx="0.886" cy="1.772" rx="0.886" ry="1.772" transform="translate(46.62 141.579)" fill="#ffb8b8"/>
    <ellipse id="Ellipse_13" data-name="Ellipse 13" cx="0.886" cy="1.772" rx="0.886" ry="1.772" transform="translate(72.757 141.579)" fill="#ffb8b8"/>
    <path id="Path_168" data-name="Path 168" d="M294.277,440.737s-11.075,0-10.632,4.43,15.062,80.625,15.062,80.625,6.2-5.759,11.518-4.43Z" transform="translate(-254.523 -273.242)" fill="#3f3d56"/>
    <path id="Path_169" data-name="Path 169" d="M371.038,443.317s11.075,2.215,11.075,8.86-15.948,70.436-18.163,70.436-10.632-1.329-10.632-3.544S371.038,443.317,371.038,443.317Z" transform="translate(-288.314 -274.493)" fill="#3f3d56"/>
    <path id="Path_170" data-name="Path 170" d="M373.606,468.687l-9.967,38.98S368.29,473.56,373.606,468.687Z" transform="translate(-293.318 -286.795)" opacity="0.2"/>
    <path id="Path_171" data-name="Path 171" d="M307.723,458.054,317.8,509.018S314.582,460.994,307.723,458.054Z" transform="translate(-266.205 -281.639)" opacity="0.2"/>
    <circle id="Ellipse_14" data-name="Ellipse 14" cx="12.847" cy="12.847" r="12.847" transform="translate(47.728 130.726)" fill="#ffb8b8"/>
    <path id="Path_172" data-name="Path 172" d="M94.307,248.61l9.6-5.029,13.26,2.057,2.743,12.117-6.829-.262-1.908-4.452v4.378l-3.151-.121L106.2,250.21l-1.143,7.545-11.2-.228Z" transform="translate(-45.508 -118.106)" fill="#2f2e41"/>
    <path id="Path_173" data-name="Path 173" d="M369.3,101.01,364,113.6l44.695,23.46L423.752,93" transform="translate(-176.502 -45.091)" fill="#f2f2f2"/>
    <path id="Path_174" data-name="Path 174" d="M406.695,98.79l19.744-46.459L381.059,30,362,75.329Z" transform="translate(-175.532 -14.542)" fill="#6c63ff"/>
    <rect id="Rectangle_29" data-name="Rectangle 29" width="0.731" height="38.581" transform="matrix(0.455, -0.89, 0.89, 0.455, 204.122, 33.874)" fill="#fff"/>
    <rect id="Rectangle_30" data-name="Rectangle 30" width="0.731" height="38.581" transform="matrix(0.455, -0.89, 0.89, 0.455, 201.547, 40.056)" fill="#fff"/>
  </g>
</svg>
