<svg xmlns="http://www.w3.org/2000/svg" xmlns:xlink="http://www.w3.org/1999/xlink" width="382.789" height="304.319" viewBox="0 0 382.789 304.319">
  <defs>
    <linearGradient id="linear-gradient" x1="0.5" y1="1" x2="0.5" gradientUnits="objectBoundingBox">
      <stop offset="0" stop-color="gray" stop-opacity="0.251"/>
      <stop offset="0.54" stop-color="gray" stop-opacity="0.122"/>
      <stop offset="1" stop-color="gray" stop-opacity="0.102"/>
    </linearGradient>
  </defs>
  <g id="Group_2" data-name="Group 2" transform="translate(0 -0.008)">
    <path id="Path_1" data-name="Path 1" d="M321.4,111.129c-24.221-.842-47.293-8.66-69.321-17.215s-43.846-18.035-67.487-22.567c-15.205-2.915-32.6-3.327-44.845,4.824-11.792,7.859-15.6,21.388-17.649,33.955-1.542,9.453-2.448,19.4,1.778,28.251,2.93,6.145,8.136,11.31,11.732,17.215,12.526,20.478,3.675,45.732-9.9,65.728-6.362,9.382-13.753,18.338-18.663,28.315s-7.185,21.425-2.889,31.612c4.263,10.1,14.416,17.679,25.411,23.012,22.338,10.834,48.651,13.933,74.328,15.688,56.821,3.888,113.941,2.2,170.912.52,21.085-.625,42.259-1.257,63-4.517,11.519-1.811,23.409-4.682,31.773-11.62,10.613-8.806,13.244-23.719,6.134-34.759-11.935-18.521-44.909-23.121-53.262-43-4.588-10.939.127-23.124,6.8-33.274,14.311-21.766,38.3-40.863,39.561-65.743.868-17.092-10.666-34.2-28.495-42.289-18.686-8.507-44.606-7.429-58.385,6.6C367.729,106.324,342.783,111.87,321.4,111.129Z" transform="translate(-96.906 -59.696)" fill="#6c63ff" opacity="0.1"/>
    <path id="Path_2" data-name="Path 2" d="M199.983,507.515l-128.1-.625L59.16,477.037l45.006-3.267-7.844-32.731L185.339,429.5,100.1,399.869l7.53-1.789,137.066,22.361-7.548,51.08-10.789,28.072Z" transform="translate(-37.02 -249.097)" fill="#6c63ff"/>
    <path id="Path_3" data-name="Path 3" d="M187,698.636s7.859-1.257,12.575,4.3c0,0-3.458,2.725-10.9-1.048Z" transform="translate(-150.167 -453.346)" fill="#6c63ff"/>
    <path id="Path_4" data-name="Path 4" d="M179.4,698.51s-5.015,6.171-2.545,13.042c0,0,4.087-1.635,4.532-9.966Z" transform="translate(-143.392 -453.344)" fill="#6c63ff"/>
    <path id="Path_5" data-name="Path 5" d="M172.76,668.063s3.144-5.767,15.718,2.305c0,0-1.677,3.877-7.23,3.563S174.227,671.1,172.76,668.063Z" transform="translate(-141.256 -433.042)" fill="#6c63ff"/>
    <path id="Path_6" data-name="Path 6" d="M158.625,670.279s-6.523-.748-7.155,14.184c0,0,4.135.857,7.073-3.866S160.276,673.225,158.625,670.279Z" transform="translate(-127.934 -435.674)" fill="#6c63ff"/>
    <path id="Path_7" data-name="Path 7" d="M160.44,629.212s3.668-10.164,16.976-2.934c0,0-3.039,9.326-15.613,6.392Z" transform="translate(-133.547 -406.519)" fill="#6c63ff"/>
    <path id="Path_8" data-name="Path 8" d="M149.52,589.844s6.916-10.269,19.176-.749c0,0-4.3,9.64-18.128,4.4Z" transform="translate(-126.714 -382.345)" fill="#6c63ff"/>
    <path id="Path_9" data-name="Path 9" d="M145.6,552.209s8.069-9.435,20.209,0c0,0-7.649,8.278-20.209,2.41Z" transform="translate(-124.261 -359.171)" fill="#6c63ff"/>
    <path id="Path_10" data-name="Path 10" d="M142.24,514.1s8.173-9.85,19.8-.524c0,0-9.221,8.7-19.8,2.829Z" transform="translate(-122.158 -335.11)" fill="#6c63ff"/>
    <path id="Path_11" data-name="Path 11" d="M144.2,476.543s8.608-12.679,19.49-4.087c0,0-9.221,10.9-19.49,6.5Z" transform="translate(-123.385 -310.019)" fill="#6c63ff"/>
    <path id="Path_12" data-name="Path 12" d="M149.52,438.463s9.117-12.575,19.7-2.934c0,0-10.793,10.9-19.7,5.239Z" transform="translate(-126.714 -286.505)" fill="#6c63ff"/>
    <path id="Path_13" data-name="Path 13" d="M156.852,400.918s10.793-11.819,20.209-7.111c0,0-11.246,12.552-20.681,10.247Z" transform="translate(-131.006 -261.98)" fill="#6c63ff"/>
    <path id="Path_14" data-name="Path 14" d="M166.243,363.908s12.455-14.476,19.7-9.64c0,0-9.176,11.227-20.583,12.35Z" transform="translate(-136.626 -237.312)" fill="#6c63ff"/>
    <path id="Path_15" data-name="Path 15" d="M179.823,327.792s10.9-11.819,18.865-8.884c0,0-9.326,12.26-20.329,12.574Z" transform="translate(-144.761 -215.511)" fill="#6c63ff"/>
    <path id="Path_16" data-name="Path 16" d="M194.564,291.663s12.051-11.317,17.29-9.326c0,0-8.7,12.574-17.814,11.841Z" transform="translate(-154.573 -192.773)" fill="#6c63ff"/>
    <path id="Path_17" data-name="Path 17" d="M208.32,253.657s10.374-13.521,16.036-12.473c0,0-6.291,12.054-16.036,13.847Z" transform="translate(-163.508 -167.131)" fill="#6c63ff"/>
    <path id="Path_18" data-name="Path 18" d="M221.668,212.77s9.169-10.363,14.124-10.34c0,0-7.238,13.847-14.5,13.72Z" transform="translate(-171.624 -142.917)" fill="#6c63ff"/>
    <path id="Path_19" data-name="Path 19" d="M228.7,164.306l8.858-21.586s.442,19.513-9.985,25.591Z" transform="translate(-175.554 -105.553)" fill="#6c63ff"/>
    <path id="Path_20" data-name="Path 20" d="M240.09,104.194s1.467-18.027.524-19.494c0,0,6.332,14.988-.584,27.458Z" transform="translate(-183.351 -69.247)" fill="#6c63ff"/>
    <path id="Path_21" data-name="Path 21" d="M134.221,635.894s-9.184-5.692-15.131,8.233c0,0,8.173,5.427,16.212-4.682Z" transform="translate(-107.672 -413.441)" fill="#6c63ff"/>
    <path id="Path_22" data-name="Path 22" d="M120.759,594.837s-11.265-5.138-16.729,9.4c0,0,8.7,5.988,17.754-5.726Z" transform="translate(-98.248 -387.918)" fill="#6c63ff"/>
    <path id="Path_23" data-name="Path 23" d="M110.409,554.519s-8.069-9.435-20.209,0c0,0,7.649,8.278,20.209,2.41Z" transform="translate(-89.594 -360.616)" fill="#6c63ff"/>
    <path id="Path_24" data-name="Path 24" d="M108.385,514.1s-8.173-9.85-19.8-.524c0,0,9.221,8.7,19.8,2.829Z" transform="translate(-88.58 -335.11)" fill="#6c63ff"/>
    <path id="Path_25" data-name="Path 25" d="M113.776,473.244s-5.733-14.2-18.2-8.095c0,0,6.736,12.593,17.687,10.453Z" transform="translate(-92.96 -306.361)" fill="#6c63ff"/>
    <path id="Path_26" data-name="Path 26" d="M120.788,433.337s-5.7-14.449-18.338-7.75c0,0,7.739,13.244,17.776,9.981Z" transform="translate(-97.259 -281.45)" fill="#6c63ff"/>
    <path id="Path_27" data-name="Path 27" d="M139.614,385.99s-2.245-15.842-12.724-17.26c0,0,2.223,16.706,11.313,20.115Z" transform="translate(-112.553 -246.981)" fill="#6c63ff"/>
    <path id="Path_28" data-name="Path 28" d="M152.479,348.732s-.876-19.086-9.539-19.752c0,0,.292,14.487,8.563,22.454Z" transform="translate(-122.596 -222.107)" fill="#6c63ff"/>
    <path id="Path_29" data-name="Path 29" d="M166.523,312.22s-2.582-15.872-10.853-17.81c0,0,1.025,15.37,10.033,21.706Z" transform="translate(-130.562 -200.475)" fill="#6c63ff"/>
    <path id="Path_30" data-name="Path 30" d="M188.265,276.293s-.086-16.534-5.138-18.963c0,0-3.132,14.97,3.675,21.074Z" transform="translate(-147.294 -177.271)" fill="#6c63ff"/>
    <path id="Path_31" data-name="Path 31" d="M199.074,241.633s-.707-17.024-5.939-19.423c0,0-1.789,13.473,5.157,20.538Z" transform="translate(-153.876 -155.295)" fill="#6c63ff"/>
    <path id="Path_32" data-name="Path 32" d="M215.915,205.105s-.03-13.847-3.765-17.1c0,0-3.712,15.168,1.815,19.88Z" transform="translate(-165.142 -133.894)" fill="#6c63ff"/>
    <path id="Path_33" data-name="Path 33" d="M221.012,160.046,217.378,137s-4.936,18.884,3.806,27.207Z" transform="translate(-168.308 -101.974)" fill="#6c63ff"/>
    <path id="Path_34" data-name="Path 34" d="M216.02,108.585s-9.326-15.494-9.135-17.215c0,0,.992,16.238,12.724,24.326Z" transform="translate(-162.609 -73.42)" fill="#6c63ff"/>
    <path id="Path_35" data-name="Path 35" d="M212.844,85.367s-8.8-22.005-12.784-23.787c0,0,12.575,6.392,13.518,23.158Z" transform="translate(-158.34 -54.779)" fill="#6c63ff"/>
    <path id="Path_36" data-name="Path 36" d="M220.163,165.563l-.6-.183c7.429-24.225,9.281-39.67,5.221-43.543l.43-.457C229.519,125.467,227.771,140.743,220.163,165.563Z" transform="translate(-170.542 -92.199)" fill="#444053"/>
    <path id="Path_37" data-name="Path 37" d="M165.021,293.2l-.891-.318c.79-2.219,1.639-4.472,2.53-6.691,7.754-19.326,14.356-37.3,18.589-51.106l.775-.374c-4.24,13.828-10.726,32.5-18.488,51.847C166.649,288.735,165.8,290.977,165.021,293.2Z" transform="translate(-135.856 -163.117)" fill="#444053"/>
    <path id="Path_38" data-name="Path 38" d="M168.567,520.818c-.12-.131-12.159-13.69-20.553-36.836a136.291,136.291,0,0,1-8.11-42.207c-.576-18.012,3.2-38.124,9.678-56.394l.7.823c-14.536,41.006-8.761,76.143-1.1,97.3,8.3,22.937,20.209,36.346,20.325,36.481Z" transform="translate(-120.66 -257.4)" fill="#444053"/>
    <path id="Path_39" data-name="Path 39" d="M587.25,670.36s-8.484,10.355-1.748,26.01l-67.738,29.378-6.5,1.362-2.994-13.1,2-16.53v-9.034Z" transform="translate(-351.205 -435.729)" fill="#d5d6db"/>
    <path id="Path_40" data-name="Path 40" d="M59.16,580.482l93.755-17.092,124.229,19.79-77.161,27.78Z" transform="translate(-37.02 -352.542)" fill="#6c63ff"/>
    <path id="Path_41" data-name="Path 41" d="M59.16,580.482l93.755-17.092,124.229,19.79-77.161,27.78Z" transform="translate(-37.02 -352.542)" fill="#6c63ff"/>
    <path id="Path_42" data-name="Path 42" d="M141.838,652.47s-8.768,16.613,1.336,31.956l139.031,30.126s-8.63-13.233.445-31.6Z" transform="translate(-119.698 -424.534)" fill="#6c63ff"/>
    <path id="Path_43" data-name="Path 43" d="M141.838,652.47s-8.768,16.613,1.336,31.956l139.031,30.126s-8.63-13.233.445-31.6Z" transform="translate(-119.698 -424.534)" opacity="0.1"/>
    <path id="Path_44" data-name="Path 44" d="M155.086,667.86s-5.011,12.155,0,20.022" transform="translate(-128.803 -434.164)" opacity="0.1"/>
    <path id="Path_45" data-name="Path 45" d="M290.34,762.98l77.618-33.12s4.341.936,1.534,4.117-77.655,32.185-77.655,32.185L151.31,732.854Z" transform="translate(-127.834 -472.961)" fill="#6c63ff"/>
    <path id="Path_46" data-name="Path 46" d="M290.34,762.98l77.618-33.12s4.341.936,1.534,4.117-77.655,32.185-77.655,32.185L151.31,732.854Z" transform="translate(-127.834 -472.961)" opacity="0.1"/>
    <path id="Path_47" data-name="Path 47" d="M500.248,742.86s-7.485,8.982,0,22.454" transform="translate(-344.103 -481.096)" opacity="0.1"/>
    <rect id="Rectangle_6" data-name="Rectangle 6" width="35.392" height="0.374" transform="translate(158.809 272.812) rotate(-18.45)" opacity="0.1"/>
    <rect id="Rectangle_7" data-name="Rectangle 7" width="43.124" height="0.374" transform="translate(158.797 275.825) rotate(-20.82)" opacity="0.1"/>
    <rect id="Rectangle_8" data-name="Rectangle 8" width="49.984" height="0.374" transform="translate(159.022 279.377) rotate(-22.26)" opacity="0.1"/>
    <rect id="Rectangle_9" data-name="Rectangle 9" width="57.536" height="0.374" transform="translate(159.561 282.508) rotate(-24.31)" opacity="0.1"/>
    <rect id="Rectangle_10" data-name="Rectangle 10" width="62.929" height="0.374" transform="matrix(0.916, -0.401, 0.401, 0.916, 159.978, 284.032)" opacity="0.1"/>
    <rect id="Rectangle_11" data-name="Rectangle 11" width="75.305" height="0.374" transform="translate(160.848 286.592) rotate(-23.36)" opacity="0.1"/>
    <path id="Path_48" data-name="Path 48" d="M152.23,590.787,218.1,576.94l40.126,7.672-53.973,17.4Z" transform="translate(-95.259 -361.021)" fill="#fff" opacity="0.3"/>
    <path id="Path_49" data-name="Path 49" d="M601.172,659.69s3.406,1.373,1.407,3.5S524,687.47,524,687.47Z" transform="translate(-361.048 -429.052)" fill="#6c63ff"/>
    <path id="Path_50" data-name="Path 50" d="M686.546,574.18s-8.48,10.351-1.744,26.01l-67.738,29.378-6.5,1.37-2.994-13.1,2.032-16.526v-9.045Z" transform="translate(-413.343 -375.543)" fill="#d5d6db"/>
    <path id="Path_51" data-name="Path 51" d="M158.46,484.3l93.751-17.088L376.444,487l-77.161,27.78Z" transform="translate(-99.158 -292.356)" fill="#3a3768"/>
    <path id="Path_52" data-name="Path 52" d="M241.094,556.29s-8.772,16.613,1.332,31.956l139.03,30.126s-8.626-13.244.46-31.6Z" transform="translate(-181.807 -364.348)" fill="#3a3768"/>
    <path id="Path_53" data-name="Path 53" d="M241.094,556.29s-8.772,16.613,1.332,31.956l139.03,30.126s-8.626-13.244.46-31.6l-43.966-9.517Z" transform="translate(-181.807 -364.348)" opacity="0.1"/>
    <path id="Path_54" data-name="Path 54" d="M254.379,571.68s-5.007,12.152,0,20.022" transform="translate(-190.937 -373.979)" opacity="0.1"/>
    <path id="Path_55" data-name="Path 55" d="M389.63,666.8l77.621-33.12s4.337.936,1.531,4.117-77.655,32.185-77.655,32.185L250.6,636.674Z" transform="translate(-189.966 -412.776)" fill="#3a3768"/>
    <path id="Path_56" data-name="Path 56" d="M389.63,666.8l77.621-33.12s4.337.936,1.531,4.117-77.655,32.185-77.655,32.185L250.6,636.674Z" transform="translate(-189.966 -412.776)" opacity="0.1"/>
    <path id="Path_57" data-name="Path 57" d="M599.538,646.68s-7.485,8.982,0,22.454" transform="translate(-406.235 -420.911)" opacity="0.1"/>
    <rect id="Rectangle_12" data-name="Rectangle 12" width="35.392" height="0.374" transform="translate(195.97 236.821) rotate(-18.45)" opacity="0.1"/>
    <rect id="Rectangle_13" data-name="Rectangle 13" width="43.124" height="0.374" transform="translate(195.963 239.833) rotate(-20.82)" opacity="0.1"/>
    <rect id="Rectangle_14" data-name="Rectangle 14" width="49.984" height="0.374" transform="translate(196.182 243.379) rotate(-22.26)" opacity="0.1"/>
    <rect id="Rectangle_15" data-name="Rectangle 15" width="57.536" height="0.374" transform="translate(196.726 246.512) rotate(-24.31)" opacity="0.1"/>
    <rect id="Rectangle_16" data-name="Rectangle 16" width="62.929" height="0.374" transform="matrix(0.916, -0.401, 0.401, 0.916, 197.137, 248.031)" opacity="0.1"/>
    <rect id="Rectangle_17" data-name="Rectangle 17" width="75.305" height="0.374" transform="translate(198.01 250.59) rotate(-23.36)" opacity="0.1"/>
    <path id="Path_58" data-name="Path 58" d="M251.53,494.607,317.4,480.76l40.126,7.672-53.973,17.4Z" transform="translate(-157.397 -300.835)" fill="#fff" opacity="0.45"/>
    <path id="Path_59" data-name="Path 59" d="M700.491,563.51s3.4,1.373,1.407,3.492-78.568,24.284-78.568,24.284Z" transform="translate(-423.205 -368.866)" fill="#3a3768"/>
    <path id="Path_60" data-name="Path 60" d="M695.965,464.15s-8.484,18.589-1.748,34.243L626.48,519.538l-6.486,1.373L617,507.813l2-16.53v-9.045Z" transform="translate(-419.244 -306.691)" fill="#d5d6db"/>
    <path id="Path_61" data-name="Path 61" d="M167.89,374.272l93.755-17.092,124.233,19.79-77.165,27.78Z" transform="translate(-105.059 -223.504)" fill="#6c63ff"/>
    <path id="Path_62" data-name="Path 62" d="M250.551,446.26s-8.783,16.613,1.321,31.956L390.9,508.343s-8.63-13.244.457-31.6Z" transform="translate(-187.72 -295.496)" fill="#6c63ff"/>
    <path id="Path_63" data-name="Path 63" d="M250.551,446.26s-8.783,16.613,1.321,31.956L390.9,508.343s-8.63-13.244.457-31.6Z" transform="translate(-187.72 -295.496)" opacity="0.1"/>
    <path id="Path_64" data-name="Path 64" d="M263.816,461.65s-5.011,12.155,0,20.022" transform="translate(-196.842 -305.126)" opacity="0.1"/>
    <path id="Path_65" data-name="Path 65" d="M399.07,561.776l77.618-24.887s4.341.936,1.534,4.117-77.655,23.951-77.655,23.951L260.04,531.65Z" transform="translate(-195.873 -348.93)" fill="#6c63ff"/>
    <path id="Path_66" data-name="Path 66" d="M399.07,561.776l77.618-24.887s4.341.936,1.534,4.117-77.655,23.951-77.655,23.951L260.04,531.65Z" transform="translate(-195.873 -348.93)" opacity="0.1"/>
    <path id="Path_67" data-name="Path 67" d="M608.978,536.65s-7.485,8.982,0,22.454" transform="translate(-412.142 -352.058)" opacity="0.1"/>
    <rect id="Rectangle_18" data-name="Rectangle 18" width="35.392" height="0.374" transform="translate(199.504 195.643) rotate(-18.45)" opacity="0.1"/>
    <rect id="Rectangle_19" data-name="Rectangle 19" width="43.124" height="0.374" transform="translate(199.494 198.656) rotate(-20.82)" opacity="0.1"/>
    <rect id="Rectangle_20" data-name="Rectangle 20" width="49.984" height="0.374" transform="translate(199.71 202.205) rotate(-22.26)" opacity="0.1"/>
    <rect id="Rectangle_21" data-name="Rectangle 21" width="57.536" height="0.374" transform="translate(200.26 205.334) rotate(-24.31)" opacity="0.1"/>
    <rect id="Rectangle_22" data-name="Rectangle 22" width="62.929" height="0.374" transform="matrix(0.916, -0.401, 0.401, 0.916, 200.672, 206.857)" opacity="0.1"/>
    <rect id="Rectangle_23" data-name="Rectangle 23" width="75.305" height="0.374" transform="translate(201.544 209.418) rotate(-23.36)" opacity="0.1"/>
    <path id="Path_68" data-name="Path 68" d="M260.96,384.577l65.866-13.847,40.126,7.672-53.973,17.4Z" transform="translate(-163.298 -231.983)" fill="#fff" opacity="0.3"/>
    <path id="Path_69" data-name="Path 69" d="M709.921,453.48s3.406,1.373,1.407,3.5S632.76,481.26,632.76,481.26Z" transform="translate(-429.106 -300.014)" fill="#6c63ff"/>
    <path id="Path_70" data-name="Path 70" d="M377.774,149.889s-14.221-.857-12.56,9.12a2.434,2.434,0,0,0,1.265,2.564s.026-.748,1.46-.49a6.381,6.381,0,0,0,1.549.075,3.226,3.226,0,0,0,1.89-.778h0s4-1.654,5.557-8.2c0,0,1.153-1.426,1.123-1.793l-2.41,1.025a4.318,4.318,0,0,1,.176,3.174s-.079-3.11-.543-3.039c-.094,0-1.246.6-1.246.6s1.411,3.02.344,5.213c0,0,.4-3.72-.786-5l-1.692.988s1.65,3.117.531,5.662c0,0,.288-3.9-.887-5.423l-1.534,1.2s1.553,3.073.606,5.183c0,0-.124-4.543-.936-4.888a9.249,9.249,0,0,0-1.546,1.669s1.063,2.245.4,3.409c0,0-.4-3.028-.748-3.043a10.074,10.074,0,0,0-1.475,3.368,7.283,7.283,0,0,1,1.149-3.57,4.008,4.008,0,0,0-2.043,1.059s.206-1.418,2.376-1.542a9.2,9.2,0,0,1,1.4-1.613,8.761,8.761,0,0,0-3.465.4s1.153-1.336,3.858-.748l1.5-1.235a12.913,12.913,0,0,0-4.042.041s1.388-1.183,4.45-.322l1.65-.984a15,15,0,0,0-3.862-.333s1.519-.82,4.345.067l1.175-.528s-1.77-.348-2.29-.4-.546-.2-.546-.2a6.179,6.179,0,0,1,3.331.374A14.853,14.853,0,0,0,377.774,149.889Z" transform="translate(-261.602 -110.028)" fill="#6c63ff"/>
    <path id="Path_71" data-name="Path 71" d="M912.374,259.469s-14.221-.857-12.56,9.12a2.434,2.434,0,0,0,1.265,2.564s.026-.748,1.46-.49a6.593,6.593,0,0,0,1.549.075,3.215,3.215,0,0,0,1.871-.778h0s4-1.654,5.557-8.2c0,0,1.153-1.426,1.123-1.793l-2.4,1.025a4.318,4.318,0,0,1,.176,3.174s-.078-3.11-.539-3.039c-.094,0-1.25.6-1.25.6s1.411,3.02.348,5.213c0,0,.4-3.72-.79-5l-1.692.988s1.65,3.117.531,5.662c0,0,.288-3.9-.887-5.423l-1.531,1.2s1.549,3.073.6,5.183c0,0-.123-4.543-.936-4.888a9.385,9.385,0,0,0-1.546,1.669s1.063,2.245.4,3.409c0,0-.4-3.028-.748-3.043a10.075,10.075,0,0,0-1.475,3.368,7.26,7.26,0,0,1,1.153-3.57,4.027,4.027,0,0,0-2.047,1.059s.21-1.418,2.376-1.542a9.343,9.343,0,0,1,1.4-1.617,8.8,8.8,0,0,0-3.465.4s1.153-1.336,3.858-.748l1.5-1.235a12.916,12.916,0,0,0-4.042.041s1.385-1.183,4.45-.322l1.647-.984a15,15,0,0,0-3.862-.333s1.52-.82,4.345.067l1.179-.528s-1.774-.348-2.294-.4-.546-.2-.546-.2a6.134,6.134,0,0,1,3.331.374A15.1,15.1,0,0,0,912.374,259.469Z" transform="translate(-596.133 -178.598)" fill="#6c63ff" opacity="0.1"/>
    <path id="Path_72" data-name="Path 72" d="M436.732,300.792s-6.2-12.848-14.086-6.516a2.431,2.431,0,0,0-1.62,2.354s.655-.341,1.123,1.037a6.632,6.632,0,0,0,.689,1.385,3.23,3.23,0,0,0,1.606,1.272h0s3.394,2.687,9.865.853a6.4,6.4,0,0,0,2.1.094l-2.066-1.6a4.344,4.344,0,0,1-2.687,1.7s2.68-1.583,2.391-1.95c-.06-.075-1.123-.8-1.123-.8s-1.95,2.706-4.382,2.844c0,0,3.443-1.46,3.974-3.125l-1.684-1s-1.92,2.964-4.685,3.226c0,0,3.548-1.65,4.3-3.417l-1.789-.749s-1.927,2.852-4.233,3.058c0,0,3.907-2.324,3.81-3.2a9.484,9.484,0,0,0-2.212-.535s-1.43,2.017-2.777,2.017c0,0,2.444-1.83,2.294-2.126a9.873,9.873,0,0,0-3.668.374,7.287,7.287,0,0,1,3.679-.749,4.03,4.03,0,0,0-1.924-1.269s1.34-.509,2.5,1.321a9.233,9.233,0,0,1,2.092.434,8.786,8.786,0,0,0-2.036-2.826s1.729.348,2.519,2.994l1.815.719a12.482,12.482,0,0,0-2.006-3.507s1.707.632,2.451,3.742l1.662.958a14.806,14.806,0,0,0-1.591-3.533s1.456.928,2.058,3.825l1.037.771s-.561-1.718-.748-2.2-.094-.576-.094-.576a6.141,6.141,0,0,1,1.3,3.087A13.965,13.965,0,0,0,436.732,300.792Z" transform="translate(-296.609 -199.294)" fill="#6c63ff" opacity="0.1"/>
    <path id="Path_73" data-name="Path 73" d="M820.512,197.172s-6.194-12.848-14.086-6.516a2.435,2.435,0,0,0-1.62,2.354s.659-.337,1.123,1.037a6.491,6.491,0,0,0,.692,1.388,3.211,3.211,0,0,0,1.6,1.269h0s3.4,2.687,9.865.857a6.431,6.431,0,0,0,2.107.09l-2.055-1.6a4.342,4.342,0,0,1-2.683,1.7s2.676-1.587,2.388-1.954c-.06-.075-1.123-.8-1.123-.8s-1.946,2.706-4.382,2.844c0,0,3.447-1.46,3.978-3.121l-1.71-.988s-1.916,2.96-4.685,3.226c0,0,3.548-1.654,4.3-3.421l-1.793-.748s-1.927,2.855-4.229,3.058c0,0,3.9-2.324,3.806-3.2a9.258,9.258,0,0,0-2.208-.535s-1.43,2.013-2.781,2.013c0,0,2.448-1.83,2.3-2.126a9.9,9.9,0,0,0-3.671.374,7.283,7.283,0,0,1,3.679-.748,4.007,4.007,0,0,0-1.92-1.269s1.34-.509,2.5,1.321a9.264,9.264,0,0,1,2.092.438,8.758,8.758,0,0,0-2.04-2.829s1.729.352,2.519,3.013l1.819.719a12.488,12.488,0,0,0-2.006-3.51s1.707.632,2.448,3.742l1.665.958a14.947,14.947,0,0,0-1.594-3.533s1.46.928,2.058,3.825l1.037.771s-.558-1.718-.748-2.2-.094-.573-.094-.573a6.157,6.157,0,0,1,1.3,3.087A14.373,14.373,0,0,0,820.512,197.172Z" transform="translate(-536.763 -134.452)" fill="#6c63ff" opacity="0.1"/>
    <path id="Path_74" data-name="Path 74" d="M873.384,366.977s-6.194-12.851-14.1-6.519a2.435,2.435,0,0,0-1.62,2.354s.659-.337,1.123,1.037a6.487,6.487,0,0,0,.689,1.388,3.211,3.211,0,0,0,1.6,1.269h0s3.4,2.691,9.869.857c0,0,1.8.311,2.1.09l-2.066-1.6a4.342,4.342,0,0,1-2.687,1.7s2.676-1.587,2.388-1.954c-.06-.075-1.123-.8-1.123-.8s-1.946,2.706-4.382,2.848c0,0,3.447-1.463,3.978-3.125l-1.688-1s-1.916,2.964-4.686,3.226c0,0,3.548-1.654,4.3-3.421l-1.793-.748s-1.927,2.852-4.229,3.058c0,0,3.907-2.324,3.81-3.2a9.3,9.3,0,0,0-2.212-.535s-1.43,2.013-2.781,2.013c0,0,2.448-1.83,2.3-2.126a9.9,9.9,0,0,0-3.671.374,7.305,7.305,0,0,1,3.683-.748,4,4,0,0,0-1.924-1.269s1.34-.513,2.5,1.321a9.233,9.233,0,0,1,2.092.434,8.826,8.826,0,0,0-2.036-2.829s1.729.352,2.519,3.013l1.815.719a12.432,12.432,0,0,0-2.006-3.507s1.707.629,2.448,3.742l1.665.954a14.943,14.943,0,0,0-1.594-3.533s1.46.928,2.062,3.828l1.037.748s-.561-1.718-.749-2.2-.094-.573-.094-.573a6.12,6.12,0,0,1,1.3,3.087A15.156,15.156,0,0,0,873.384,366.977Z" transform="translate(-569.841 -240.707)" fill="#6c63ff" opacity="0.1"/>
    <ellipse id="Ellipse_1" data-name="Ellipse 1" cx="8.604" cy="0.962" rx="8.604" ry="0.962" transform="translate(66.974 291.546)" fill="#6c63ff" opacity="0.1"/>
    <ellipse id="Ellipse_2" data-name="Ellipse 2" cx="8.604" cy="0.962" rx="8.604" ry="0.962" transform="translate(10.572 275.199)" fill="#6c63ff" opacity="0.1"/>
    <ellipse id="Ellipse_3" data-name="Ellipse 3" cx="8.604" cy="0.962" rx="8.604" ry="0.962" transform="translate(109.967 302.403)" fill="#6c63ff" opacity="0.1"/>
    <ellipse id="Ellipse_4" data-name="Ellipse 4" cx="8.604" cy="0.962" rx="8.604" ry="0.962" transform="translate(330.283 278.754)" fill="#6c63ff" opacity="0.1"/>
    <ellipse id="Ellipse_5" data-name="Ellipse 5" cx="8.604" cy="0.962" rx="8.604" ry="0.962" transform="translate(258.686 274.087)" fill="#6c63ff" opacity="0.1"/>
    <ellipse id="Ellipse_6" data-name="Ellipse 6" cx="10.176" cy="1.748" rx="10.176" ry="1.748" transform="translate(210.799 295.277)" fill="#6c63ff" opacity="0.1"/>
    <path id="Path_75" data-name="Path 75" d="M676.207,790.14s-14.169,7.32-6.849,15.943a2.738,2.738,0,0,0,2.68,1.74s-.4-.726,1.123-1.306a7.305,7.305,0,0,0,1.531-.812,3.6,3.6,0,0,0,1.37-1.83h0s2.9-3.877.651-11.051a7.109,7.109,0,0,0,.037-2.358l-1.722,2.361a4.821,4.821,0,0,1,1.984,2.949s-1.871-2.945-2.245-2.62c-.082.067-.853,1.291-.853,1.291s3.084,2.092,3.312,4.809c0,0-1.736-3.806-3.611-4.349l-1.074,1.916s3.368,2.051,3.742,5.135c0,0-1.957-3.911-3.956-4.7l-.79,2.025s3.248,2.066,3.548,4.633c0,0-2.717-4.293-3.694-4.158a10.376,10.376,0,0,0-.531,2.489s2.294,1.534,2.335,3.043c0,0-2.118-2.676-2.444-2.5a11.279,11.279,0,0,0,.516,4.09,8.074,8.074,0,0,1-.939-4.09,4.491,4.491,0,0,0-1.359,2.186s-.61-1.478,1.4-2.841a10.354,10.354,0,0,1,.423-2.35,9.865,9.865,0,0,0-3.1,2.365s.341-1.942,3.29-2.908l.748-2.051s-2.949,1.25-3.858,2.35c0,0,.655-1.927,4.091-2.852l1.018-1.871a17.184,17.184,0,0,0-3.9,1.871s.992-1.658,4.214-2.421l.827-1.179s-1.9.677-2.432.921-.636.124-.636.124a6.883,6.883,0,0,1,3.409-1.549A16.678,16.678,0,0,0,676.207,790.14Z" transform="translate(-450.694 -510.682)" fill="#6c63ff"/>
    <path id="Path_76" data-name="Path 76" d="M591.3,184.622c-2.448-6.65-15.92-7.275-21.766-5.58-4.154,1.209-12.911,2.571-17.589,3.256l-.3-.288c.606-.18.621-.621.546-1.276a19.984,19.984,0,0,1,.037-2.59c2.867.891,5.419-1.216,5.419-1.216h0c3.368-1.5,2.462-7.9,3.106-9.655.483-1.31,1-9.027,1.235-12.874h.049l.026-1.291c.034-.558.049-.883.049-.883s.329-9.408.973-11.313c.6-1.751,1.085-10.576,1.16-11.976v-.183l-.049-.816c.034-.6.049-1.257.045-1.954,0-3.2-.333-7.23-.374-7.882v-.341c.026-1.366-.146-8.207-5.965-10.793-2.144-.958-4.723-2.1-7.219-3.211-.644-5.557-2.114-11.085-1.987-16.684,0-.842.075-1.684.157-2.522,0,.243-.026.49-.03.748V86.93c.221-7,2.867-14.042,2.62-20.894-.022.67-.071,1.344-.135,2.017a21.751,21.751,0,0,0-.719-6.882,4.072,4.072,0,0,0-1.175-2.133,4.839,4.839,0,0,0-2.051-.812,41.25,41.25,0,0,0-5.385-1,8.316,8.316,0,0,0-1.213-2.354c-3.795-5.209-9.416-10.1-16.062-11.227-3.334-.561-7.17-.094-9.438,2.29a7.072,7.072,0,0,0-.666.674c-1.22,1.456-1.744,3.368-2.994,4.82-.082.1-.176.187-.266.281-2.448,2.189-6.261,2.646-8.982,4.611a10.784,10.784,0,0,0-1.344,1.171,22.783,22.783,0,0,0-2.934,3.567,14.794,14.794,0,0,0-2.87,5.569c-.782,4.117,2.021,8.02,2.541,12.163,1.16,9.27-9.1,17.5-7.155,26.642a12.2,12.2,0,0,0,3.3,5.924c-4,3.623-7.406,7.137-7.406,7.137v.21h-.632l.064.748h-.064l.348,4.061-.348,5.913v.558h.022c.116,2.167.576,9.959,1.123,11.6.644,1.9.969,11.313.969,11.313s.711,13.3,1.362,15.056-.273,8.147,3.106,9.655h0a7.111,7.111,0,0,0,3.394,1.407c-.172,1.4-.064,2.414.494,2.732a1.632,1.632,0,0,0,.786.225,8.338,8.338,0,0,0-.61,1.067,15.852,15.852,0,0,1-3.922-.924c-3.63-1.5-15.677-4.865-19.176-2.5s-11.92,4.517-8.031,14.053,5.7,9.775,5.7,9.775a13.847,13.847,0,0,1,3.11,3.125c1.168,1.755,12.047,5.771,14.768,5.771a26.638,26.638,0,0,1,3.462.172s-2.953,2.59-2.56,4.094-.9,13.548-.9,13.548,2.994,3.016,4.274-.939l.045.06c.24.326,1.534,1.8,3.971-.06a22.26,22.26,0,0,1,3.166-2.006l11.8-1.669a33.388,33.388,0,0,1,3.694-.026,7.719,7.719,0,0,0,4.865-1.811c2.444.928,5.191,1.942,6.5,2.313,2.65.748,14.827,4.016,17.675,2.994a3.955,3.955,0,0,0,1.534-1.093l2.717.086-1.272.255s2.477.041,5.846.086l-.142.082,4.225-.037c6.182.056,13.128.075,14.042-.131,1.43-.318,8.858-.094,11.048,0h.61s8.162-1.628,4.794-9.91c-2.59-6.362-10.55-8.211-14.083-8.72,1-.2,1.852-.352,2.421-.442,2.466-.374,7.257-2.62,7.646-3.387s4.4-2.994,5.441-4.263S593.759,191.272,591.3,184.622Zm-67.607,18.611-.4.131-.269.09-.516.509c-.412-.277-.853-.569-1.314-.868C522.005,203.143,522.84,203.192,523.693,203.233Zm35.669,10.546Z" transform="translate(-323.733 -43.42)" fill="url(#linear-gradient)"/>
    <path id="Path_77" data-name="Path 77" d="M686.65,287.825s5.726,14.97,8.982,13.473,2.373-7.859,2.994-9.6,1.31-14.97,1.31-14.97.314-9.356.936-11.25c.576-1.74,1.044-10.516,1.123-11.9v-.183l-.617-10.853-3.5-.872-8.106,2.994-1.123,6.411-.438,2.5-.187,1.067Z" transform="translate(-462.828 -167.472)" fill="#be6f72"/>
    <path id="Path_78" data-name="Path 78" d="M691.69,358.3s5.464,4.472,7.111,4.865,2.657,3.881,2.657,3.881" transform="translate(-465.982 -240.454)" opacity="0.1"/>
    <path id="Path_79" data-name="Path 79" d="M541.344,289.575s-5.726,14.97-8.982,13.473-2.373-7.859-2.994-9.6-1.31-14.97-1.31-14.97-.314-9.356-.936-11.25c-.576-1.74-1.044-10.516-1.123-11.9v-.183l.621-10.853,3.5-.872,8.106,2.994,1.123,6.411.438,2.5.187,1.067Z" transform="translate(-362.3 -168.567)" fill="#be6f72"/>
    <rect id="Rectangle_24" data-name="Rectangle 24" width="12.78" height="19.921" transform="translate(203.55 40.898)" fill="#3e373a"/>
    <rect id="Rectangle_25" data-name="Rectangle 25" width="12.78" height="19.921" transform="translate(203.55 40.898)" opacity="0.1"/>
    <path id="Path_80" data-name="Path 80" d="M555.8,404.6s-4.367,4.8-2.747,5.673,12.1,17.215,12.1,17.215,34.43,4.24,40.923-2.122,6.362-17.728,6.362-17.728-5.217,1.123-5.786.513-3.694-3.552-3.694-3.552S558.8,401.919,555.8,404.6Z" transform="translate(-379.005 -268.681)" fill="#4b4b5b"/>
    <path id="Path_81" data-name="Path 81" d="M555.8,404.6s-4.367,4.8-2.747,5.673,12.1,17.215,12.1,17.215,34.43,4.24,40.923-2.122,6.362-17.728,6.362-17.728-5.217,1.123-5.786.513-3.694-3.552-3.694-3.552S558.8,401.919,555.8,404.6Z" transform="translate(-379.005 -268.681)" opacity="0.02"/>
    <path id="Path_82" data-name="Path 82" d="M602.119,186.826l-11.227,8.982-3.394.247-1.246.09-20.931,1.534-21.706-1.587-3.23-.236-4.117-.3-8.608-8.233a147.406,147.406,0,0,1,11.429-10.932,23.449,23.449,0,0,1,5.539-3.7l.247-.086a6.16,6.16,0,0,0,2.373-1.654c4.214-4.345,8.11-15.067,8.11-15.067s18.589-9.6,16.343,2.994,8.357,9.483,8.357,9.483l3.5,1.594,1.381.632,3.522,1.613,7.945,3.645C602.635,178.716,602.119,186.826,602.119,186.826Z" transform="translate(-363.338 -111.599)" fill="#be6f72"/>
    <circle id="Ellipse_7" data-name="Ellipse 7" cx="16.717" cy="16.717" r="16.717" transform="translate(184.392 21.108)" opacity="0.1"/>
    <path id="Path_83" data-name="Path 83" d="M601.106,232.512H526v-.183l.621-10.853a147.4,147.4,0,0,1,11.429-10.932l47.154-1.871,2.193-2.313,7.945,3.645c6.239,2.867,5.737,10.976,5.737,10.976S601.933,230.379,601.106,232.512Z" transform="translate(-362.3 -145.376)" opacity="0.1"/>
    <path id="Path_84" data-name="Path 84" d="M601.106,231.512H526v-.183l.621-10.853a147.4,147.4,0,0,1,11.429-10.932l47.154-1.871,2.193-2.313,7.945,3.645c6.239,2.867,5.737,10.976,5.737,10.976S601.933,229.379,601.106,231.512Z" transform="translate(-362.3 -144.751)" fill="#e7c7ca"/>
    <path id="Path_85" data-name="Path 85" d="M585.968,188.453s11.848,15.1,27.63-.311,1.748,34.367,1.748,34.367L581.29,226.55Z" transform="translate(-396.898 -132.125)" opacity="0.1"/>
    <path id="Path_86" data-name="Path 86" d="M585.968,190.453s11.848,15.1,27.63-.311,1.748,34.367,1.748,34.367L581.29,228.55Z" transform="translate(-396.898 -133.376)" fill="#e7c7ca"/>
    <path id="Path_87" data-name="Path 87" d="M599.857,201.967l1.254,19.12,1.343,6.362,1.026,4.865s2.62,37.424,1.871,39.3.374,3.368.531,4.364-.157,3.5-.034,4.618,0,1.62-2.867,1.22-6.864-1.1-6.864-1.1-10.1.748-13.6-.5-10.1-1.25-10.1-1.25-9.981.251-13.222-.124-4.992,3.993-7.111,2.743,2.492-13.345,3.989-16.841-1.995-12.35-1.995-12.35l4.491-24.913,1-5.647V204.082l.247-.086a6.16,6.16,0,0,0,2.373-1.654l1.123,17.866,35.179,1.25V201.35" transform="translate(-378.28 -142.241)" opacity="0.1"/>
    <path id="Path_88" data-name="Path 88" d="M599.857,199.967l1.254,19.12,1.343,6.362,1.026,4.865s2.62,37.424,1.871,39.3.374,3.368.531,4.364-.157,3.5-.034,4.618,0,1.62-2.867,1.22-6.864-1.1-6.864-1.1-10.1.749-13.6-.5-10.1-1.25-10.1-1.25-9.981.251-13.222-.124-4.992,3.993-7.111,2.743,2.492-13.345,3.989-16.841-1.995-12.35-1.995-12.35l4.491-24.913,1-5.647V202.082l.247-.086a6.16,6.16,0,0,0,2.373-1.654l1.123,17.866,35.179,1.25V199.35" transform="translate(-378.28 -140.99)" fill="#e7c7ca"/>
    <path id="Path_89" data-name="Path 89" d="M595.15,64.894a4.124,4.124,0,0,0-1.123-2.118,4.6,4.6,0,0,0-1.976-.808,39.043,39.043,0,0,0-5.194-1,8.315,8.315,0,0,0-1.123-2.332c-3.668-5.179-9.094-10.063-15.479-11.167-3.342-.58-7.215-.06-9.356,2.575-1.175,1.448-1.68,3.368-2.867,4.79-2.287,2.762-6.414,3.1-9.3,5.239a17.223,17.223,0,0,0-3.742,4.33,14.854,14.854,0,0,0-2.766,5.535c-.748,4.083,1.95,7.975,2.448,12.1,1.123,9.218-8.757,17.395-6.89,26.489,1.089,5.3,5.988,9.038,11.055,10.932,1.785.67,3.825,1.336,4.659,3.05.374.748.438,1.613.79,2.369,1.183,2.522,5.071,2.62,7.159.782s2.747-4.809,2.994-7.582c1-12.11-3.847-24.075-3.282-36.215.168-3.671,1.2-7.837,4.491-9.5,4.427-2.245,9.753,1.5,14.625.782a29.015,29.015,0,0,1,1.4,17.705c-.775,3.23-2.115,6.362-2.212,9.693-.146,5.071,2.59,9.7,4.955,14.187a7.549,7.549,0,0,1,1,2.736,6.593,6.593,0,0,1-.535,2.863c-1.336,3.6-3.641,6.935-3.9,10.763a1.74,1.74,0,0,0,.281,1.28,1.609,1.609,0,0,0,.966.434c4.042.692,7.537-2.889,9.509-6.486a30.4,30.4,0,0,0,3.75-12.919c.408-7.62-2.324-15.116-2.156-22.743C593.525,81.989,597.444,73.258,595.15,64.894Z" transform="translate(-369.527 -45.818)" opacity="0.1"/>
    <path id="Path_90" data-name="Path 90" d="M596.15,63.894a4.124,4.124,0,0,0-1.123-2.118,4.6,4.6,0,0,0-1.976-.808,39.042,39.042,0,0,0-5.195-1,8.315,8.315,0,0,0-1.123-2.332c-3.668-5.179-9.094-10.063-15.479-11.167-3.342-.58-7.215-.06-9.356,2.575-1.175,1.448-1.68,3.368-2.867,4.79-2.287,2.762-6.414,3.1-9.3,5.239a17.223,17.223,0,0,0-3.742,4.33,14.853,14.853,0,0,0-2.766,5.535c-.749,4.083,1.95,7.975,2.448,12.1,1.123,9.218-8.757,17.395-6.89,26.489,1.089,5.3,5.988,9.038,11.055,10.932,1.785.67,3.825,1.336,4.659,3.05.374.748.438,1.613.79,2.369,1.183,2.522,5.071,2.62,7.159.782s2.747-4.809,2.994-7.582c1-12.11-3.847-24.075-3.282-36.215.168-3.671,1.2-7.837,4.491-9.5,4.427-2.245,9.753,1.5,14.625.782a29.014,29.014,0,0,1,1.4,17.705c-.775,3.23-2.115,6.362-2.212,9.693-.146,5.071,2.59,9.7,4.955,14.187a7.55,7.55,0,0,1,1,2.736,6.593,6.593,0,0,1-.535,2.863c-1.336,3.6-3.641,6.935-3.9,10.763a1.74,1.74,0,0,0,.281,1.28,1.61,1.61,0,0,0,.966.434c4.042.692,7.537-2.889,9.509-6.486a30.4,30.4,0,0,0,3.75-12.919c.408-7.62-2.324-15.116-2.156-22.743C594.525,80.989,598.444,72.258,596.15,63.894Z" transform="translate(-370.153 -45.192)" fill="#3e373a"/>
    <path id="Path_91" data-name="Path 91" d="M581.79,475.115l14.846.475-2.129-11.01-11.373,1.082Z" transform="translate(-364.06 -290.71)" fill="#c3c7d9"/>
    <path id="Path_92" data-name="Path 92" d="M677.944,427.632c-1,1.246-4.865,3.492-5.239,4.24s-4.989,2.994-7.361,3.368-9.854,2-11.227,2.87c-.984.629-8.884,2.62-14.075,3.724a39.937,39.937,0,0,1-4.263.767c-2.245.123-26.818-8.233-26.818-8.233L613.7,429.5l.262-.09c1.34-.453,7.53-2.545,10.965-3.54,3.87-1.123,8.361-5.737,8.361-5.737s6.609-2.245,7.485-2.5-2.245-8.731-2.245-8.731,14.345-1.991,19.958-3.679,18.589-1.063,20.958,5.55S678.958,426.386,677.944,427.632Z" transform="translate(-414.213 -269.323)" fill="#4b4b5b"/>
    <path id="Path_93" data-name="Path 93" d="M565.643,500.642s-2.867,2.994-5.737,2.747-12.908.748-12.908.748a20.122,20.122,0,0,0-5.056,2.93c-2.346,1.849-3.593.374-3.825.06l-.041-.06c-1.25,3.933-4.117.936-4.117.936s1.246-11.976.864-13.473,2.466-4.068,2.466-4.068l3.368-.857,8.533-2.186,12.226,4.24Z" transform="translate(-367.281 -321.252)" fill="#e7c7ca"/>
    <path id="Path_94" data-name="Path 94" d="M540.644,493.26l-2.526,17.522-.041-.06c-1.25,3.933-4.117.936-4.117.936s1.246-11.976.864-13.473,2.466-4.068,2.466-4.068Z" transform="translate(-367.281 -324.907)" opacity="0.1"/>
    <path id="Path_95" data-name="Path 95" d="M599,360.08s6.609,2.245,12.35,0" transform="translate(-407.98 -241.568)" opacity="0.1"/>
    <path id="Path_96" data-name="Path 96" d="M659.29,371.42s2.743,1.37,4.865,0" transform="translate(-445.707 -248.664)" opacity="0.1"/>
    <path id="Path_97" data-name="Path 97" d="M659.29,379.049s4.614.617,5.49-.629" transform="translate(-445.707 -253.045)" opacity="0.1"/>
    <path id="Path_98" data-name="Path 98" d="M655.29,394.37s8.667-1.123,10.819-2.62" transform="translate(-443.204 -261.386)" opacity="0.1"/>
    <path id="Path_99" data-name="Path 99" d="M584.62,391.75s4.865,2.743,8.484,2.62" transform="translate(-398.982 -261.386)" opacity="0.1"/>
    <path id="Path_100" data-name="Path 100" d="M640.031,483.6a39.946,39.946,0,0,1-4.263.767c-2.245.124-26.818-8.233-26.818-8.233l4.738-4.865.262-.09c.749.528,1.362.981,1.8,1.325,2.062,1.624,4.053-.5,4.8-.5s7.234,5.363,7.234,5.363,5.988,1.373,6.987,2.62,4.491,1,5.112,1.871A3.339,3.339,0,0,1,640.031,483.6Z" transform="translate(-414.206 -311.09)" opacity="0.1"/>
    <path id="Path_101" data-name="Path 101" d="M507.419,410.345s-6.055.348-9.547-1.123-15.093-4.865-18.461-2.481-11.478,4.491-7.736,13.974,5.49,9.73,5.49,9.73a13.509,13.509,0,0,1,2.994,3.106c1.123,1.748,11.6,5.737,14.221,5.737s7.234,0,13.72,4.491a28.2,28.2,0,0,0,12.35,4.992s8.233,3.368,10.8,4.117,14.277,3.989,17.024,2.994,4.491-7.238,4.491-7.238,1.246-5.614.621-6.486-4.117-.625-5.112-1.871-6.987-2.62-6.987-2.62-6.471-5.367-7.219-5.367-2.739,2.118-4.8.5a109.544,109.544,0,0,0-12.915-8.233C511.611,422.07,507.419,410.345,507.419,410.345Z" transform="translate(-327.701 -270.25)" fill="#4b4b5b"/>
    <path id="Path_102" data-name="Path 102" d="M536.27,427.178a7.148,7.148,0,0,1,6.134,1.62c2.994,2.5,13.068,7.507,13.068,7.507" transform="translate(-368.726 -283.465)" opacity="0.1"/>
    <path id="Path_103" data-name="Path 103" d="M709.8,427s-13.349,2.021-15.842,4.764" transform="translate(-467.402 -283.444)" opacity="0.1"/>
    <path id="Path_104" data-name="Path 104" d="M719.927,506.132h-.588c-2.111-.075-9.262-.3-10.64,0-1.62.374-23.079,0-23.079,0l4.2-.872s-1.557-5.456-.569-5.909c0,0-5.614-3.7-1.381-6.194a13.131,13.131,0,0,1,8.795-1.445l10.625-3.6,2.04-.692s11.976.625,15.217,8.858S719.927,506.132,719.927,506.132Z" transform="translate(-462.183 -321.252)" fill="#e7c7ca"/>
    <path id="Path_105" data-name="Path 105" d="M756.152,506.163h-.588c3.484-2.874,11.366-11.624-12.054-18l2.04-.692s11.976.625,15.217,8.858S756.152,506.163,756.152,506.163Z" transform="translate(-498.408 -321.284)" opacity="0.1"/>
    <circle id="Ellipse_8" data-name="Ellipse 8" cx="0.655" cy="0.655" r="0.655" transform="translate(235.072 173.87)" fill="#4b4b5b"/>
    <circle id="Ellipse_9" data-name="Ellipse 9" cx="0.655" cy="0.655" r="0.655" transform="translate(231.266 174.951)" fill="#4b4b5b"/>
    <g id="Group_1" data-name="Group 1" transform="translate(168.499 23.541)" opacity="0.1">
      <path id="Path_106" data-name="Path 106" d="M623.112,120.2a29.038,29.038,0,0,0-2.148-12.028c-4.865.726-10.194-3.028-14.625-.782-3.278,1.662-4.307,5.827-4.491,9.5-.045.969-.052,1.939-.034,2.908,0-.344,0-.692.034-1.037.172-3.671,1.2-7.837,4.491-9.5,4.431-2.245,9.753,1.5,14.625.782a28.96,28.96,0,0,1,2.148,10.157Z" transform="translate(-578.234 -106.531)"/>
      <path id="Path_107" data-name="Path 107" d="M553.621,120.769a12.472,12.472,0,0,0-.049-2.448c-.4-3.293-2.2-6.441-2.522-9.652-.419,3.873,2.047,7.593,2.522,11.523A2.339,2.339,0,0,1,553.621,120.769Z" transform="translate(-546.444 -107.787)"/>
      <path id="Path_108" data-name="Path 108" d="M565.719,212.336c-.232,2.777-.887,5.745-2.994,7.586s-5.988,1.74-7.159-.782c-.374-.748-.43-1.62-.793-2.369-.831-1.714-2.874-2.38-4.659-3.05-5.071-1.9-9.962-5.614-11.051-10.932a11.488,11.488,0,0,1-.2-1.46,11.794,11.794,0,0,0,.2,3.331c1.089,5.3,5.988,9.034,11.051,10.932,1.785.67,3.828,1.336,4.659,3.05.374.748.438,1.613.793,2.369,1.179,2.522,5.067,2.62,7.159.782s2.743-4.809,2.994-7.586a42.759,42.759,0,0,0,.116-4.394C565.834,210.664,565.786,211.5,565.719,212.336Z" transform="translate(-538.823 -165.77)"/>
      <path id="Path_109" data-name="Path 109" d="M687.93,125.464v1.62c.21-6.961,2.762-13.959,2.511-20.774C690.247,112.612,688.072,119.057,687.93,125.464Z" transform="translate(-632.128 -106.31)"/>
      <path id="Path_110" data-name="Path 110" d="M656.654,204.327a4.828,4.828,0,0,0,.086-1.351,7.486,7.486,0,0,0-1-2.736c-2.163-4.117-4.629-8.331-4.921-12.9,0,.195-.026.374-.03.584-.15,5.067,2.586,9.7,4.951,14.187A8.986,8.986,0,0,1,656.654,204.327Z" transform="translate(-608.884 -157.015)"/>
      <path id="Path_111" data-name="Path 111" d="M669.333,217.008a30.454,30.454,0,0,1-3.776,12.919c-1.976,3.6-5.468,7.178-9.513,6.486a1.591,1.591,0,0,1-.966-.438.934.934,0,0,1-.176-.292c-.045.292-.082.588-.1.887a1.725,1.725,0,0,0,.281,1.276,1.591,1.591,0,0,0,.966.438c4.046.692,7.537-2.889,9.513-6.486a30.453,30.453,0,0,0,3.776-12.919c.045-.876.049-1.748.022-2.62C669.348,216.511,669.348,216.758,669.333,217.008Z" transform="translate(-611.379 -175.112)"/>
    </g>
    <path id="Path_112" data-name="Path 112" d="M695.31,511.24s9.472,3.974,15.718-4.82" transform="translate(-468.247 -333.142)" fill="none" stroke="#000" stroke-miterlimit="10" stroke-width="1" opacity="0.1"/>
    <path id="Path_113" data-name="Path 113" d="M700.29,534.039a18.467,18.467,0,0,1,17.589-.165" transform="translate(-471.363 -348.995)" fill="none" stroke="#000" stroke-miterlimit="10" stroke-width="1" opacity="0.1"/>
    <path id="Path_114" data-name="Path 114" d="M561.93,528.388s3.248-7.328,11.923-1.74" transform="translate(-384.783 -344.485)" fill="none" stroke="#000" stroke-miterlimit="10" stroke-width="1" opacity="0.1"/>
    <path id="Path_115" data-name="Path 115" d="M533.79,233.007l6.624-5.988s25.684-1.684,26.747,7.047c0,0,9.105-10.352,28.255-8.046l8.1,6.452L581.124,242.3l-21.762,7.548-16.029-7.174Z" transform="translate(-367.174 -157.469)" opacity="0.1"/>
    <path id="Path_116" data-name="Path 116" d="M533.79,234.007l6.624-5.988s25.684-1.684,26.747,7.047c0,0,9.105-10.352,28.255-8.046l8.1,6.452L581.124,243.3l-21.762,7.548-16.029-7.174Z" transform="translate(-367.174 -158.095)" fill="#d5d6db"/>
    <path id="Path_117" data-name="Path 117" d="M437.38,204.83l2.93,35.055,31.062,1.561-1.347-34.905-.026-.588Z" transform="translate(-273.695 -128.17)" opacity="0.1"/>
    <path id="Path_118" data-name="Path 118" d="M437.38,202.83l2.93,35.055,31.062,1.561-1.347-34.905-.026-.588Z" transform="translate(-273.695 -126.918)" fill="#6c63ff"/>
    <path id="Path_119" data-name="Path 119" d="M581.753,202.83l-32.042,4.805v35.212l31.313-4.525Z" transform="translate(-343.986 -126.918)" opacity="0.1"/>
    <path id="Path_120" data-name="Path 120" d="M581.753,200.83l-32.042,4.805v35.212l31.313-4.525Z" transform="translate(-343.986 -125.667)" fill="#6c63ff"/>
    <path id="Path_121" data-name="Path 121" d="M586.2,223.79l-17.309,1.924.378,5.9,16.919-1.849Z" transform="translate(-355.988 -140.034)" fill="#fff" opacity="0.3"/>
    <path id="Path_122" data-name="Path 122" d="M537.032,337.879l1.763,4.742s2.62,2.245,5.486,1.123,5.367-1.68,6.613-2.773,2.994-6.583,2.994-6.583,1.748-5.988,3.492-7.485,6.362-22.121,0-20.1-11.227,20.729-11.227,20.729a4.437,4.437,0,0,1-2.743,1.5c-1.621.127-4.865-.251-5.49,1.123S535.161,335.136,537.032,337.879Z" transform="translate(-368.732 -208.14)" fill="#be6f72"/>
    <path id="Path_123" data-name="Path 123" d="M622.577,255.163a10.778,10.778,0,0,1-9.4-2.343l1.351,34.9a9.525,9.525,0,0,0,8.046,2.657Z" transform="translate(-416.853 -174.449)" opacity="0.1"/>
    <path id="Path_124" data-name="Path 124" d="M622.577,253.163a10.778,10.778,0,0,1-9.4-2.343l1.351,34.9a9.525,9.525,0,0,0,8.046,2.657Z" transform="translate(-416.853 -173.198)" fill="#6c63ff"/>
    <path id="Path_125" data-name="Path 125" d="M622.577,253.163a10.778,10.778,0,0,1-9.4-2.343l1.351,34.9a9.525,9.525,0,0,0,8.046,2.657Z" transform="translate(-416.853 -173.198)" opacity="0.1"/>
    <path id="Path_126" data-name="Path 126" d="M640.29,240.754s13.035-3.986,16.433-3.424" transform="translate(-433.818 -164.722)" opacity="0.1"/>
    <path id="Path_127" data-name="Path 127" d="M576.675,238.081s-12.634-2.994-14.745-2.144" transform="translate(-384.783 -163.789)" opacity="0.1"/>
    <path id="Path_128" data-name="Path 128" d="M662.25,244.412s8.716-3.2,11.867-1.677" transform="translate(-447.559 -167.882)" opacity="0.1"/>
    <path id="Path_129" data-name="Path 129" d="M650.52,451.167a28.659,28.659,0,0,1,4.3-2.668,70.086,70.086,0,0,0,6.362-3.888" transform="translate(-440.219 -294.464)" opacity="0.1"/>
    <path id="Path_130" data-name="Path 130" d="M545.6,360.08s-5.468,4.472-7.111,4.865-2.657,3.881-2.657,3.881" transform="translate(-368.451 -241.568)" opacity="0.1"/>
    <path id="Path_131" data-name="Path 131" d="M675.876,336.117l-1.744,4.753s-2.62,2.245-5.49,1.123-5.363-1.68-6.613-2.773-2.994-6.583-2.994-6.583-1.744-5.988-3.492-7.485-6.362-22.121,0-20.1,11.227,20.729,11.227,20.729a4.437,4.437,0,0,0,2.743,1.5c1.62.127,4.865-.251,5.49,1.123S677.747,333.386,675.876,336.117Z" transform="translate(-441.324 -207.045)" fill="#be6f72"/>
    <path id="Path_132" data-name="Path 132" d="M707.15,364.94s3.574,2.3,3.559,5.045" transform="translate(-475.656 -244.609)" opacity="0.1"/>
    <circle id="Ellipse_10" data-name="Ellipse 10" cx="16.717" cy="16.717" r="16.717" transform="translate(184.452 20.289)" fill="#be6f72"/>
    <path id="Path_133" data-name="Path 133" d="M584.229,100.83c2.028-.318,3.806-1.5,5.745-2.174,4.337-1.523,9.135-.479,13.525.894a17.54,17.54,0,0,0,5.161,1.123,5.223,5.223,0,0,0,4.543-2.245,5.076,5.076,0,0,0-.03-4.689,13.209,13.209,0,0,0-3.054-3.769c-3.892-3.675-8.72-7.111-14.06-6.736A19.35,19.35,0,0,0,589.88,85a68.113,68.113,0,0,0-7.253,3.653c-1.8,1.044-5.135,2.44-6.171,4.349C574.1,97.3,580.561,101.406,584.229,100.83Z" transform="translate(-393.557 -68.311)" fill="#3e373a"/>
    <path id="Path_134" data-name="Path 134" d="M613.2,114.724a5.223,5.223,0,0,1-4.543,2.245,17.555,17.555,0,0,1-5.165-1.1c-4.39-1.373-9.184-2.421-13.525-.894-1.935.677-3.716,1.871-5.745,2.171-2.956.464-7.717-2.111-8.233-5.385-.58,3.784,4.94,7.024,8.233,6.508,2.028-.318,3.81-1.5,5.745-2.171,4.341-1.527,9.135-.479,13.525.894a16.845,16.845,0,0,0,5.165,1.1,5.263,5.263,0,0,0,4.543-2.245,4.382,4.382,0,0,0,.524-2.736A4.034,4.034,0,0,1,613.2,114.724Z" transform="translate(-393.554 -86.18)" opacity="0.1"/>
    <path id="Path_135" data-name="Path 135" d="M1027.788,661.63s2.219,2.9-1.025,7.283-5.917,8.08-4.839,10.812c0,0,4.9-8.136,8.877-8.252S1032.163,666.521,1027.788,661.63Z" transform="translate(-672.477 -430.266)" fill="#6c63ff"/>
    <path id="Path_136" data-name="Path 136" d="M1028,661.63a3.588,3.588,0,0,1,.453.909c3.885,4.566,5.958,8.828,2.219,8.933-3.48.1-7.653,6.325-8.653,7.893a3.684,3.684,0,0,0,.116.374s4.9-8.136,8.877-8.252S1032.375,666.521,1028,661.63Z" transform="translate(-672.689 -430.266)" opacity="0.1"/>
    <path id="Path_137" data-name="Path 137" d="M1048.143,670.418c0,1.022-.116,1.849-.255,1.849s-.258-.827-.258-1.849.142-.539.284-.539S1048.143,669.4,1048.143,670.418Z" transform="translate(-688.714 -435.357)" fill="#ffd037"/>
    <path id="Path_138" data-name="Path 138" d="M1049.866,673.566c-.894.486-1.677.782-1.744.659s.6-.621,1.5-1.123.543-.135.61,0S1050.764,673.076,1049.866,673.566Z" transform="translate(-689.019 -437.284)" fill="#ffd037"/>
    <path id="Path_139" data-name="Path 139" d="M998.337,661.63s-2.219,2.9,1.025,7.283,5.917,8.08,4.835,10.812c0,0-4.891-8.136-8.877-8.252S993.974,666.521,998.337,661.63Z" transform="translate(-654.754 -430.266)" fill="#6c63ff"/>
    <path id="Path_140" data-name="Path 140" d="M998.337,661.63a3.593,3.593,0,0,0-.453.909c-3.885,4.566-5.958,8.828-2.219,8.933,3.477.1,7.653,6.325,8.652,7.893a2.889,2.889,0,0,1-.12.374s-4.891-8.136-8.877-8.252S993.974,666.521,998.337,661.63Z" transform="translate(-654.754 -430.266)" opacity="0.1"/>
    <path id="Path_141" data-name="Path 141" d="M995.64,670.418c0,1.022.112,1.849.254,1.849s.258-.827.258-1.849-.146-.539-.284-.539S995.64,669.4,995.64,670.418Z" transform="translate(-656.181 -435.357)" fill="#ffd037"/>
    <path id="Path_142" data-name="Path 142" d="M990.949,673.566c.894.486,1.677.782,1.744.659s-.6-.621-1.5-1.123-.543-.135-.61,0S990.051,673.076,990.949,673.566Z" transform="translate(-652.905 -437.284)" fill="#ffd037"/>
    <ellipse id="Ellipse_11" data-name="Ellipse 11" cx="23.203" cy="3.559" rx="23.203" ry="3.559" transform="translate(326.244 264.541)" fill="#6c63ff" opacity="0.1"/>
    <path id="Path_143" data-name="Path 143" d="M1014.29,697.265l-.112.906-.157,1.28-.064.535-.157,1.28-.067.535-.153,1.276-1.778,14.558c-.157,1.3-2.279,2.313-4.843,2.313h-9.225c-2.564,0-4.682-1.014-4.843-2.313l-1.778-14.558-.157-1.276-.064-.535-.157-1.28-.067-.535-.153-1.28-.112-.906c-.086-.749,1.059-1.355,2.511-1.355h18.869C1013.231,695.91,1014.38,696.528,1014.29,697.265Z" transform="translate(-652.901 -451.717)" fill="#65617d"/>
    <path id="Path_144" data-name="Path 144" d="M925.793,658.53l-.153,1.28H902.287l-.157-1.28Z" transform="translate(-564.516 -412.076)" fill="#9d9cb5"/>
    <path id="Path_145" data-name="Path 145" d="M925.942,663.38l-.153,1.28H902.877l-.157-1.28Z" transform="translate(-564.885 -415.111)" fill="#9d9cb5"/>
    <path id="Path_146" data-name="Path 146" d="M926.1,668.23l-.157,1.28H903.473l-.153-1.28Z" transform="translate(-565.261 -418.146)" fill="#9d9cb5"/>
  </g>
</svg>
